solid LIXIE_MODULAR_RELEASE_VERSION
facet normal 1.2246467991473532e-16 0.0 -1.0
  outer loop
    vertex 394.9532168102739 16.793377659552885 220.36359094897335
    vertex 397.55321681027385 19.793377659552885 220.36359094897335
    vertex 397.55321681027385 16.793377659552885 220.36359094897335
  endloop
endfacet
facet normal 1.2246467991473532e-16 0.0 -1.0
  outer loop
    vertex 397.55321681027385 19.793377659552885 220.36359094897335
    vertex 394.9532168102739 16.793377659552885 220.36359094897335
    vertex 397.55321681027385 45.393377659555405 220.36359094897335
  endloop
endfacet
facet normal 1.2246467991473532e-16 0.0 -1.0
  outer loop
    vertex 397.55321681027385 45.393377659555405 220.36359094897335
    vertex 394.9532168102739 16.793377659552885 220.36359094897335
    vertex 397.55321681027385 48.393377659555405 220.36359094897335
  endloop
endfacet
facet normal 1.2246467991473532e-16 0.0 -1.0
  outer loop
    vertex 397.55321681027385 48.393377659555405 220.36359094897335
    vertex 394.9532168102739 16.793377659552885 220.36359094897335
    vertex 394.9532168102739 48.393377659555405 220.36359094897335
  endloop
endfacet
facet normal 1.2246467991473532e-16 0.0 -1.0
  outer loop
    vertex 477.0532168102741 1.5933776595528828 220.36359094897335
    vertex 475.0532168102741 15.593377659552887 220.36359094897335
    vertex 477.0532168102741 19.593377659552885 220.36359094897335
  endloop
endfacet
facet normal 1.2246467991473532e-16 0.0 -1.0
  outer loop
    vertex 475.0532168102741 15.593377659552887 220.36359094897335
    vertex 477.0532168102741 1.5933776595528828 220.36359094897335
    vertex 465.5532168102741 7.093377659552858 220.36359094897335
  endloop
endfacet
facet normal 1.2246467991473532e-16 0.0 -1.0
  outer loop
    vertex 465.5532168102741 7.093377659552858 220.36359094897335
    vertex 477.0532168102741 1.5933776595528828 220.36359094897335
    vertex 400.95321681027383 1.5933776595528846 220.36359094897335
  endloop
endfacet
facet normal 1.2246467991473532e-16 0.0 -1.0
  outer loop
    vertex 475.0532168102741 15.593377659552887 220.36359094897335
    vertex 465.5532168102741 7.093377659552858 220.36359094897335
    vertex 470.0532168102741 15.593377659552887 220.36359094897335
  endloop
endfacet
facet normal 1.2246467991473532e-16 0.0 -1.0
  outer loop
    vertex 470.0532168102741 15.593377659552887 220.36359094897335
    vertex 465.5532168102741 7.093377659552858 220.36359094897335
    vertex 470.0532168102741 49.593377659555394 220.36359094897335
  endloop
endfacet
facet normal 1.2246467991473532e-16 0.0 -1.0
  outer loop
    vertex 465.5532168102741 7.093377659552858 220.36359094897335
    vertex 400.95321681027383 1.5933776595528846 220.36359094897335
    vertex 462.55321681027414 7.093377659552858 220.36359094897335
  endloop
endfacet
facet normal 1.2246467991473532e-16 0.0 -1.0
  outer loop
    vertex 462.55321681027414 7.093377659552858 220.36359094897335
    vertex 400.95321681027383 1.5933776595528846 220.36359094897335
    vertex 461.053216810274 8.593377659552882 220.36359094897335
  endloop
endfacet
facet normal 1.2246467991473532e-16 0.0 -1.0
  outer loop
    vertex 462.55321681027414 7.093377659552858 220.36359094897335
    vertex 461.053216810274 8.593377659552882 220.36359094897335
    vertex 462.55321681027414 10.093377659552898 220.36359094897335
  endloop
endfacet
facet normal 1.2246467991473532e-16 0.0 -1.0
  outer loop
    vertex 462.55321681027414 10.093377659552898 220.36359094897335
    vertex 461.053216810274 8.593377659552882 220.36359094897335
    vertex 462.55321681027414 55.09337765955538 220.36359094897335
  endloop
endfacet
facet normal 1.2246467991473532e-16 0.0 -1.0
  outer loop
    vertex 462.55321681027414 55.09337765955538 220.36359094897335
    vertex 461.053216810274 8.593377659552882 220.36359094897335
    vertex 462.55321681027414 58.09337765955542 220.36359094897335
  endloop
endfacet
facet normal 1.2246467991473532e-16 0.0 -1.0
  outer loop
    vertex 461.053216810274 8.593377659552882 220.36359094897335
    vertex 400.95321681027383 1.5933776595528846 220.36359094897335
    vertex 409.25321681027384 7.093377659552858 220.36359094897335
  endloop
endfacet
facet normal 1.2246467991473532e-16 0.0 -1.0
  outer loop
    vertex 461.053216810274 8.593377659552882 220.36359094897335
    vertex 409.25321681027384 7.093377659552858 220.36359094897335
    vertex 410.7532168102737 8.593377659552882 220.36359094897335
  endloop
endfacet
facet normal 1.2246467991473532e-16 0.0 -1.0
  outer loop
    vertex 410.7532168102737 8.593377659552882 220.36359094897335
    vertex 409.25321681027384 7.093377659552858 220.36359094897335
    vertex 410.7532168102737 56.5933776595554 220.36359094897335
  endloop
endfacet
facet normal 1.2246467991473532e-16 0.0 -1.0
  outer loop
    vertex 409.25321681027384 7.093377659552858 220.36359094897335
    vertex 400.95321681027383 1.5933776595528846 220.36359094897335
    vertex 406.25321681027384 7.093377659552858 220.36359094897335
  endloop
endfacet
facet normal 1.2246467991473532e-16 0.0 -1.0
  outer loop
    vertex 406.25321681027384 7.093377659552858 220.36359094897335
    vertex 400.95321681027383 1.5933776595528846 220.36359094897335
    vertex 406.25321681027384 10.093377659552898 220.36359094897335
  endloop
endfacet
facet normal 1.2246467991473532e-16 0.0 -1.0
  outer loop
    vertex 406.25321681027384 10.093377659552898 220.36359094897335
    vertex 400.95321681027383 1.5933776595528846 220.36359094897335
    vertex 406.25321681027384 55.09337765955538 220.36359094897335
  endloop
endfacet
facet normal 1.2246467991473532e-16 0.0 -1.0
  outer loop
    vertex 406.25321681027384 55.09337765955538 220.36359094897335
    vertex 400.95321681027383 1.5933776595528846 220.36359094897335
    vertex 406.25321681027384 58.09337765955542 220.36359094897335
  endloop
endfacet
facet normal 1.2246467991473532e-16 0.0 -1.0
  outer loop
    vertex 406.25321681027384 58.09337765955542 220.36359094897335
    vertex 400.95321681027383 1.5933776595528846 220.36359094897335
    vertex 401.1532168102739 45.393377659555405 220.36359094897335
  endloop
endfacet
facet normal 1.2246467991473532e-16 0.0 -1.0
  outer loop
    vertex 401.1532168102739 45.393377659555405 220.36359094897335
    vertex 400.95321681027383 1.5933776595528846 220.36359094897335
    vertex 400.95321681027383 19.793377659552885 220.36359094897335
  endloop
endfacet
facet normal 1.2246467991473532e-16 0.0 -1.0
  outer loop
    vertex 401.1532168102739 45.393377659555405 220.36359094897335
    vertex 400.95321681027383 19.793377659552885 220.36359094897335
    vertex 397.55321681027385 45.393377659555405 220.36359094897335
  endloop
endfacet
facet normal 1.2246467991473532e-16 0.0 -1.0
  outer loop
    vertex 397.55321681027385 45.393377659555405 220.36359094897335
    vertex 400.95321681027383 19.793377659552885 220.36359094897335
    vertex 397.55321681027385 19.793377659552885 220.36359094897335
  endloop
endfacet
facet normal 1.2246467991473532e-16 0.0 -1.0
  outer loop
    vertex 475.0532168102741 45.5933776595554 220.36359094897335
    vertex 477.0532168102741 63.59337765955541 220.36359094897335
    vertex 477.0532168102741 45.5933776595554 220.36359094897335
  endloop
endfacet
facet normal 1.2246467991473532e-16 0.0 -1.0
  outer loop
    vertex 477.0532168102741 63.59337765955541 220.36359094897335
    vertex 475.0532168102741 45.5933776595554 220.36359094897335
    vertex 475.0532168102741 49.593377659555394 220.36359094897335
  endloop
endfacet
facet normal 1.2246467991473532e-16 0.0 -1.0
  outer loop
    vertex 477.0532168102741 63.59337765955541 220.36359094897335
    vertex 475.0532168102741 49.593377659555394 220.36359094897335
    vertex 465.5532168102741 58.09337765955542 220.36359094897335
  endloop
endfacet
facet normal 1.2246467991473532e-16 0.0 -1.0
  outer loop
    vertex 477.0532168102741 63.59337765955541 220.36359094897335
    vertex 465.5532168102741 58.09337765955542 220.36359094897335
    vertex 401.1532168102739 63.59337765955541 220.36359094897335
  endloop
endfacet
facet normal 1.2246467991473532e-16 0.0 -1.0
  outer loop
    vertex 465.5532168102741 58.09337765955542 220.36359094897335
    vertex 475.0532168102741 49.593377659555394 220.36359094897335
    vertex 470.0532168102741 49.593377659555394 220.36359094897335
  endloop
endfacet
facet normal 1.2246467991473532e-16 0.0 -1.0
  outer loop
    vertex 465.5532168102741 58.09337765955542 220.36359094897335
    vertex 470.0532168102741 49.593377659555394 220.36359094897335
    vertex 465.5532168102741 7.093377659552858 220.36359094897335
  endloop
endfacet
facet normal 1.2246467991473532e-16 0.0 -1.0
  outer loop
    vertex 465.5532168102741 58.09337765955542 220.36359094897335
    vertex 465.5532168102741 7.093377659552858 220.36359094897335
    vertex 465.5532168102741 10.093377659552898 220.36359094897335
  endloop
endfacet
facet normal 1.2246467991473532e-16 0.0 -1.0
  outer loop
    vertex 465.5532168102741 58.09337765955542 220.36359094897335
    vertex 465.5532168102741 10.093377659552898 220.36359094897335
    vertex 465.5532168102741 55.09337765955538 220.36359094897335
  endloop
endfacet
facet normal 1.2246467991473532e-16 0.0 -1.0
  outer loop
    vertex 401.1532168102739 63.59337765955541 220.36359094897335
    vertex 465.5532168102741 58.09337765955542 220.36359094897335
    vertex 462.55321681027414 58.09337765955542 220.36359094897335
  endloop
endfacet
facet normal 1.2246467991473532e-16 0.0 -1.0
  outer loop
    vertex 401.1532168102739 63.59337765955541 220.36359094897335
    vertex 462.55321681027414 58.09337765955542 220.36359094897335
    vertex 461.053216810274 56.5933776595554 220.36359094897335
  endloop
endfacet
facet normal 1.2246467991473532e-16 0.0 -1.0
  outer loop
    vertex 461.053216810274 56.5933776595554 220.36359094897335
    vertex 462.55321681027414 58.09337765955542 220.36359094897335
    vertex 461.053216810274 8.593377659552882 220.36359094897335
  endloop
endfacet
facet normal 1.2246467991473532e-16 0.0 -1.0
  outer loop
    vertex 401.1532168102739 63.59337765955541 220.36359094897335
    vertex 461.053216810274 56.5933776595554 220.36359094897335
    vertex 409.25321681027384 58.09337765955542 220.36359094897335
  endloop
endfacet
facet normal 1.2246467991473532e-16 0.0 -1.0
  outer loop
    vertex 409.25321681027384 58.09337765955542 220.36359094897335
    vertex 461.053216810274 56.5933776595554 220.36359094897335
    vertex 410.7532168102737 56.5933776595554 220.36359094897335
  endloop
endfacet
facet normal 1.2246467991473532e-16 0.0 -1.0
  outer loop
    vertex 409.25321681027384 58.09337765955542 220.36359094897335
    vertex 410.7532168102737 56.5933776595554 220.36359094897335
    vertex 409.25321681027384 7.093377659552858 220.36359094897335
  endloop
endfacet
facet normal 1.2246467991473532e-16 0.0 -1.0
  outer loop
    vertex 409.25321681027384 58.09337765955542 220.36359094897335
    vertex 409.25321681027384 7.093377659552858 220.36359094897335
    vertex 409.25321681027384 10.093377659552898 220.36359094897335
  endloop
endfacet
facet normal 1.2246467991473532e-16 0.0 -1.0
  outer loop
    vertex 409.25321681027384 58.09337765955542 220.36359094897335
    vertex 409.25321681027384 10.093377659552898 220.36359094897335
    vertex 409.25321681027384 55.09337765955538 220.36359094897335
  endloop
endfacet
facet normal 1.2246467991473532e-16 0.0 -1.0
  outer loop
    vertex 401.1532168102739 63.59337765955541 220.36359094897335
    vertex 409.25321681027384 58.09337765955542 220.36359094897335
    vertex 406.25321681027384 58.09337765955542 220.36359094897335
  endloop
endfacet
facet normal 1.2246467991473532e-16 0.0 -1.0
  outer loop
    vertex 401.1532168102739 63.59337765955541 220.36359094897335
    vertex 406.25321681027384 58.09337765955542 220.36359094897335
    vertex 401.1532168102739 45.393377659555405 220.36359094897335
  endloop
endfacet
facet normal 1.2246467991473532e-16 0.0 -1.0
  outer loop
    vertex 406.25321681027384 10.093377659552898 220.36359094897335
    vertex 409.25321681027384 55.09337765955538 220.36359094897335
    vertex 409.25321681027384 10.093377659552898 220.36359094897335
  endloop
endfacet
facet normal 1.2246467991473532e-16 0.0 -1.0
  outer loop
    vertex 409.25321681027384 55.09337765955538 220.36359094897335
    vertex 406.25321681027384 10.093377659552898 220.36359094897335
    vertex 406.25321681027384 55.09337765955538 220.36359094897335
  endloop
endfacet
facet normal 1.2246467991473532e-16 0.0 -1.0
  outer loop
    vertex 462.55321681027414 10.093377659552898 220.36359094897335
    vertex 465.5532168102741 55.09337765955538 220.36359094897335
    vertex 465.5532168102741 10.093377659552898 220.36359094897335
  endloop
endfacet
facet normal 1.2246467991473532e-16 0.0 -1.0
  outer loop
    vertex 465.5532168102741 55.09337765955538 220.36359094897335
    vertex 462.55321681027414 10.093377659552898 220.36359094897335
    vertex 462.55321681027414 55.09337765955538 220.36359094897335
  endloop
endfacet
facet normal 1.2246467991473532e-16 0.0 -1.0
  outer loop
    vertex 475.0532168102741 19.593377659552885 220.36359094897335
    vertex 477.0532168102741 19.593377659552885 220.36359094897335
    vertex 475.0532168102741 15.593377659552887 220.36359094897335
  endloop
endfacet
facet normal -1.0 0.0 -1.2246467991473532e-16
  outer loop
    vertex 409.25321681027384 10.093377659552898 223.36359094897335
    vertex 409.25321681027384 7.093377659552858 220.36359094897335
    vertex 409.25321681027384 7.093377659552858 223.36359094897335
  endloop
endfacet
facet normal -1.0 0.0 -1.2246467991473532e-16
  outer loop
    vertex 409.25321681027384 7.093377659552858 220.36359094897335
    vertex 409.25321681027384 10.093377659552898 223.36359094897335
    vertex 409.25321681027384 10.093377659552898 220.36359094897335
  endloop
endfacet
facet normal 0.0 1.0 0.0
  outer loop
    vertex 477.0532168102741 63.59337765955541 220.36359094897335
    vertex 468.0532168102741 63.59337765955541 248.36359094897335
    vertex 477.0532168102741 63.59337765955541 248.36359094897335
  endloop
endfacet
facet normal 0.0 1.0 0.0
  outer loop
    vertex 468.0532168102741 63.59337765955541 248.36359094897335
    vertex 477.0532168102741 63.59337765955541 220.36359094897335
    vertex 468.0532168102741 63.59337765955541 223.36359094897335
  endloop
endfacet
facet normal 0.0 1.0 0.0
  outer loop
    vertex 468.0532168102741 63.59337765955541 223.36359094897335
    vertex 477.0532168102741 63.59337765955541 220.36359094897335
    vertex 403.75321681027384 63.59337765955541 223.36359094897335
  endloop
endfacet
facet normal 0.0 1.0 0.0
  outer loop
    vertex 403.75321681027384 63.59337765955541 223.36359094897335
    vertex 401.1532168102739 63.59337765955541 248.36359094897335
    vertex 403.75321681027384 63.59337765955541 248.36359094897335
  endloop
endfacet
facet normal 0.0 1.0 0.0
  outer loop
    vertex 401.1532168102739 63.59337765955541 248.36359094897335
    vertex 403.75321681027384 63.59337765955541 223.36359094897335
    vertex 401.1532168102739 63.59337765955541 220.36359094897335
  endloop
endfacet
facet normal 0.0 1.0 0.0
  outer loop
    vertex 401.1532168102739 63.59337765955541 220.36359094897335
    vertex 403.75321681027384 63.59337765955541 223.36359094897335
    vertex 477.0532168102741 63.59337765955541 220.36359094897335
  endloop
endfacet
facet normal -1.0 0.0 -1.2246467991473532e-16
  outer loop
    vertex 400.95321681027383 19.793377659552885 248.36359094897335
    vertex 400.95321681027383 1.5933776595528846 220.36359094897335
    vertex 400.95321681027383 1.5933776595528846 248.36359094897335
  endloop
endfacet
facet normal -1.0 0.0 -1.2246467991473532e-16
  outer loop
    vertex 400.95321681027383 1.5933776595528846 220.36359094897335
    vertex 400.95321681027383 19.793377659552885 248.36359094897335
    vertex 400.95321681027383 19.793377659552885 220.36359094897335
  endloop
endfacet
facet normal 0.0 1.0 0.0
  outer loop
    vertex 409.25321681027384 7.093377659552858 220.36359094897335
    vertex 406.25321681027384 7.093377659552858 223.36359094897335
    vertex 409.25321681027384 7.093377659552858 223.36359094897335
  endloop
endfacet
facet normal 0.0 1.0 0.0
  outer loop
    vertex 406.25321681027384 7.093377659552858 223.36359094897335
    vertex 409.25321681027384 7.093377659552858 220.36359094897335
    vertex 406.25321681027384 7.093377659552858 220.36359094897335
  endloop
endfacet
facet normal -2.3160040099769117e-17 -1.0 -2.8362868976306295e-33
  outer loop
    vertex 400.95321681027383 1.5933776595528846 220.36359094897335
    vertex 477.0532168102741 1.5933776595528828 248.36359094897335
    vertex 400.95321681027383 1.5933776595528846 248.36359094897335
  endloop
endfacet
facet normal -2.3160040099769117e-17 -1.0 -2.8362868976306295e-33
  outer loop
    vertex 477.0532168102741 1.5933776595528828 248.36359094897335
    vertex 400.95321681027383 1.5933776595528846 220.36359094897335
    vertex 477.0532168102741 1.5933776595528828 220.36359094897335
  endloop
endfacet
facet normal 1.0 0.0 1.2246467991473532e-16
  outer loop
    vertex 462.55321681027414 58.09337765955542 220.36359094897335
    vertex 462.55321681027414 55.09337765955538 223.36359094897335
    vertex 462.55321681027414 55.09337765955538 220.36359094897335
  endloop
endfacet
facet normal 1.0 0.0 1.2246467991473532e-16
  outer loop
    vertex 462.55321681027414 55.09337765955538 223.36359094897335
    vertex 462.55321681027414 58.09337765955542 220.36359094897335
    vertex 462.55321681027414 58.09337765955542 223.36359094897335
  endloop
endfacet
facet normal 1.0 0.0 1.2246467991473532e-16
  outer loop
    vertex 406.25321681027384 58.09337765955542 220.36359094897335
    vertex 406.25321681027384 55.09337765955538 223.36359094897335
    vertex 406.25321681027384 55.09337765955538 220.36359094897335
  endloop
endfacet
facet normal 1.0 0.0 1.2246467991473532e-16
  outer loop
    vertex 406.25321681027384 55.09337765955538 223.36359094897335
    vertex 406.25321681027384 58.09337765955542 220.36359094897335
    vertex 406.25321681027384 58.09337765955542 223.36359094897335
  endloop
endfacet
facet normal 0.0 -1.0 -0.0
  outer loop
    vertex 462.55321681027414 10.093377659552898 220.36359094897335
    vertex 465.5532168102741 10.093377659552898 223.36359094897335
    vertex 462.55321681027414 10.093377659552898 223.36359094897335
  endloop
endfacet
facet normal 0.0 -1.0 -0.0
  outer loop
    vertex 465.5532168102741 10.093377659552898 223.36359094897335
    vertex 462.55321681027414 10.093377659552898 220.36359094897335
    vertex 465.5532168102741 10.093377659552898 220.36359094897335
  endloop
endfacet
facet normal 0.0 1.0 0.0
  outer loop
    vertex 409.25321681027384 55.09337765955538 220.36359094897335
    vertex 406.25321681027384 55.09337765955538 223.36359094897335
    vertex 409.25321681027384 55.09337765955538 223.36359094897335
  endloop
endfacet
facet normal 0.0 1.0 0.0
  outer loop
    vertex 406.25321681027384 55.09337765955538 223.36359094897335
    vertex 409.25321681027384 55.09337765955538 220.36359094897335
    vertex 406.25321681027384 55.09337765955538 220.36359094897335
  endloop
endfacet
facet normal 0.0 -1.0 -0.0
  outer loop
    vertex 406.25321681027384 58.09337765955542 220.36359094897335
    vertex 409.25321681027384 58.09337765955542 223.36359094897335
    vertex 406.25321681027384 58.09337765955542 223.36359094897335
  endloop
endfacet
facet normal 0.0 -1.0 -0.0
  outer loop
    vertex 409.25321681027384 58.09337765955542 223.36359094897335
    vertex 406.25321681027384 58.09337765955542 220.36359094897335
    vertex 409.25321681027384 58.09337765955542 220.36359094897335
  endloop
endfacet
facet normal -1.0 0.0 -1.2246467991473532e-16
  outer loop
    vertex 465.5532168102741 10.093377659552898 223.36359094897335
    vertex 465.5532168102741 7.093377659552858 220.36359094897335
    vertex 465.5532168102741 7.093377659552858 223.36359094897335
  endloop
endfacet
facet normal -1.0 0.0 -1.2246467991473532e-16
  outer loop
    vertex 465.5532168102741 7.093377659552858 220.36359094897335
    vertex 465.5532168102741 10.093377659552898 223.36359094897335
    vertex 465.5532168102741 10.093377659552898 220.36359094897335
  endloop
endfacet
facet normal 1.0 0.0 1.2246467991473532e-16
  outer loop
    vertex 406.25321681027384 10.093377659552898 220.36359094897335
    vertex 406.25321681027384 7.093377659552858 223.36359094897335
    vertex 406.25321681027384 7.093377659552858 220.36359094897335
  endloop
endfacet
facet normal 1.0 0.0 1.2246467991473532e-16
  outer loop
    vertex 406.25321681027384 7.093377659552858 223.36359094897335
    vertex 406.25321681027384 10.093377659552898 220.36359094897335
    vertex 406.25321681027384 10.093377659552898 223.36359094897335
  endloop
endfacet
facet normal -1.0 0.0 -1.2246467991473532e-16
  outer loop
    vertex 465.5532168102741 58.09337765955542 223.36359094897335
    vertex 465.5532168102741 55.09337765955538 220.36359094897335
    vertex 465.5532168102741 55.09337765955538 223.36359094897335
  endloop
endfacet
facet normal -1.0 0.0 -1.2246467991473532e-16
  outer loop
    vertex 465.5532168102741 55.09337765955538 220.36359094897335
    vertex 465.5532168102741 58.09337765955542 223.36359094897335
    vertex 465.5532168102741 58.09337765955542 220.36359094897335
  endloop
endfacet
facet normal 0.0 -1.0 -0.0
  outer loop
    vertex 406.25321681027384 10.093377659552898 220.36359094897335
    vertex 409.25321681027384 10.093377659552898 223.36359094897335
    vertex 406.25321681027384 10.093377659552898 223.36359094897335
  endloop
endfacet
facet normal 0.0 -1.0 -0.0
  outer loop
    vertex 409.25321681027384 10.093377659552898 223.36359094897335
    vertex 406.25321681027384 10.093377659552898 220.36359094897335
    vertex 409.25321681027384 10.093377659552898 220.36359094897335
  endloop
endfacet
facet normal 0.0 -1.0 -0.0
  outer loop
    vertex 462.55321681027414 58.09337765955542 220.36359094897335
    vertex 465.5532168102741 58.09337765955542 223.36359094897335
    vertex 462.55321681027414 58.09337765955542 223.36359094897335
  endloop
endfacet
facet normal 0.0 -1.0 -0.0
  outer loop
    vertex 465.5532168102741 58.09337765955542 223.36359094897335
    vertex 462.55321681027414 58.09337765955542 220.36359094897335
    vertex 465.5532168102741 58.09337765955542 220.36359094897335
  endloop
endfacet
facet normal -1.0 0.0 -1.2246467991473532e-16
  outer loop
    vertex 409.25321681027384 58.09337765955542 223.36359094897335
    vertex 409.25321681027384 55.09337765955538 220.36359094897335
    vertex 409.25321681027384 55.09337765955538 223.36359094897335
  endloop
endfacet
facet normal -1.0 0.0 -1.2246467991473532e-16
  outer loop
    vertex 409.25321681027384 55.09337765955538 220.36359094897335
    vertex 409.25321681027384 58.09337765955542 223.36359094897335
    vertex 409.25321681027384 58.09337765955542 220.36359094897335
  endloop
endfacet
facet normal 0.0 1.0 0.0
  outer loop
    vertex 465.5532168102741 55.09337765955538 220.36359094897335
    vertex 462.55321681027414 55.09337765955538 223.36359094897335
    vertex 465.5532168102741 55.09337765955538 223.36359094897335
  endloop
endfacet
facet normal 0.0 1.0 0.0
  outer loop
    vertex 462.55321681027414 55.09337765955538 223.36359094897335
    vertex 465.5532168102741 55.09337765955538 220.36359094897335
    vertex 462.55321681027414 55.09337765955538 220.36359094897335
  endloop
endfacet
facet normal -1.0 0.0 -1.2246467991473532e-16
  outer loop
    vertex 461.053216810274 56.5933776595554 223.36359094897335
    vertex 461.053216810274 8.593377659552882 220.36359094897335
    vertex 461.053216810274 8.593377659552882 223.36359094897335
  endloop
endfacet
facet normal -1.0 0.0 -1.2246467991473532e-16
  outer loop
    vertex 461.053216810274 8.593377659552882 220.36359094897335
    vertex 461.053216810274 56.5933776595554 223.36359094897335
    vertex 461.053216810274 56.5933776595554 220.36359094897335
  endloop
endfacet
facet normal 1.0 -4.699944137579583e-16 1.2246467991473532e-16
  outer loop
    vertex 410.7532168102737 56.5933776595554 220.36359094897335
    vertex 410.7532168102737 8.593377659552882 223.36359094897335
    vertex 410.7532168102737 8.593377659552882 220.36359094897335
  endloop
endfacet
facet normal 1.0 -4.699944137579583e-16 1.2246467991473532e-16
  outer loop
    vertex 410.7532168102737 8.593377659552882 223.36359094897335
    vertex 410.7532168102737 56.5933776595554 220.36359094897335
    vertex 410.7532168102737 56.5933776595554 223.36359094897335
  endloop
endfacet
facet normal 0.0 1.0 0.0
  outer loop
    vertex 461.053216810274 8.593377659552882 220.36359094897335
    vertex 410.7532168102737 8.593377659552882 223.36359094897335
    vertex 461.053216810274 8.593377659552882 223.36359094897335
  endloop
endfacet
facet normal 0.0 1.0 0.0
  outer loop
    vertex 410.7532168102737 8.593377659552882 223.36359094897335
    vertex 461.053216810274 8.593377659552882 220.36359094897335
    vertex 410.7532168102737 8.593377659552882 220.36359094897335
  endloop
endfacet
facet normal 0.0 1.0 0.0
  outer loop
    vertex 465.5532168102741 7.093377659552858 220.36359094897335
    vertex 462.55321681027414 7.093377659552858 223.36359094897335
    vertex 465.5532168102741 7.093377659552858 223.36359094897335
  endloop
endfacet
facet normal 0.0 1.0 0.0
  outer loop
    vertex 462.55321681027414 7.093377659552858 223.36359094897335
    vertex 465.5532168102741 7.093377659552858 220.36359094897335
    vertex 462.55321681027414 7.093377659552858 220.36359094897335
  endloop
endfacet
facet normal 1.0 0.0 1.2246467991473532e-16
  outer loop
    vertex 462.55321681027414 10.093377659552898 220.36359094897335
    vertex 462.55321681027414 7.093377659552858 223.36359094897335
    vertex 462.55321681027414 7.093377659552858 220.36359094897335
  endloop
endfacet
facet normal 1.0 0.0 1.2246467991473532e-16
  outer loop
    vertex 462.55321681027414 7.093377659552858 223.36359094897335
    vertex 462.55321681027414 10.093377659552898 220.36359094897335
    vertex 462.55321681027414 10.093377659552898 223.36359094897335
  endloop
endfacet
facet normal 0.0 -1.0 -0.0
  outer loop
    vertex 410.7532168102737 56.5933776595554 220.36359094897335
    vertex 461.053216810274 56.5933776595554 223.36359094897335
    vertex 410.7532168102737 56.5933776595554 223.36359094897335
  endloop
endfacet
facet normal 0.0 -1.0 -0.0
  outer loop
    vertex 461.053216810274 56.5933776595554 223.36359094897335
    vertex 410.7532168102737 56.5933776595554 220.36359094897335
    vertex 461.053216810274 56.5933776595554 220.36359094897335
  endloop
endfacet
facet normal -1.2246467991473532e-16 0.0 1.0
  outer loop
    vertex 468.0532168102741 60.593377659555415 223.36359094897335
    vertex 465.5532168102741 58.09337765955542 223.36359094897335
    vertex 468.0532168102741 4.593377659552885 223.36359094897335
  endloop
endfacet
facet normal -1.2246467991473532e-16 0.0 1.0
  outer loop
    vertex 465.5532168102741 58.09337765955542 223.36359094897335
    vertex 468.0532168102741 60.593377659555415 223.36359094897335
    vertex 403.75321681027384 60.593377659555415 223.36359094897335
  endloop
endfacet
facet normal -1.2246467991473532e-16 0.0 1.0
  outer loop
    vertex 465.5532168102741 58.09337765955542 223.36359094897335
    vertex 403.75321681027384 60.593377659555415 223.36359094897335
    vertex 462.55321681027414 58.09337765955542 223.36359094897335
  endloop
endfacet
facet normal -1.2246467991473532e-16 0.0 1.0
  outer loop
    vertex 462.55321681027414 58.09337765955542 223.36359094897335
    vertex 403.75321681027384 60.593377659555415 223.36359094897335
    vertex 461.053216810274 56.5933776595554 223.36359094897335
  endloop
endfacet
facet normal -1.2246467991473532e-16 0.0 1.0
  outer loop
    vertex 462.55321681027414 58.09337765955542 223.36359094897335
    vertex 461.053216810274 56.5933776595554 223.36359094897335
    vertex 462.55321681027414 55.09337765955538 223.36359094897335
  endloop
endfacet
facet normal -1.2246467991473532e-16 0.0 1.0
  outer loop
    vertex 462.55321681027414 55.09337765955538 223.36359094897335
    vertex 461.053216810274 56.5933776595554 223.36359094897335
    vertex 462.55321681027414 10.093377659552898 223.36359094897335
  endloop
endfacet
facet normal -1.2246467991473532e-16 0.0 1.0
  outer loop
    vertex 462.55321681027414 10.093377659552898 223.36359094897335
    vertex 461.053216810274 56.5933776595554 223.36359094897335
    vertex 462.55321681027414 7.093377659552858 223.36359094897335
  endloop
endfacet
facet normal -1.2246467991473532e-16 0.0 1.0
  outer loop
    vertex 461.053216810274 56.5933776595554 223.36359094897335
    vertex 403.75321681027384 60.593377659555415 223.36359094897335
    vertex 409.25321681027384 58.09337765955542 223.36359094897335
  endloop
endfacet
facet normal -1.2246467991473532e-16 0.0 1.0
  outer loop
    vertex 461.053216810274 56.5933776595554 223.36359094897335
    vertex 409.25321681027384 58.09337765955542 223.36359094897335
    vertex 410.7532168102737 56.5933776595554 223.36359094897335
  endloop
endfacet
facet normal -1.2246467991473532e-16 0.0 1.0
  outer loop
    vertex 410.7532168102737 56.5933776595554 223.36359094897335
    vertex 409.25321681027384 58.09337765955542 223.36359094897335
    vertex 410.7532168102737 8.593377659552882 223.36359094897335
  endloop
endfacet
facet normal -1.2246467991473532e-16 0.0 1.0
  outer loop
    vertex 409.25321681027384 58.09337765955542 223.36359094897335
    vertex 403.75321681027384 60.593377659555415 223.36359094897335
    vertex 406.25321681027384 58.09337765955542 223.36359094897335
  endloop
endfacet
facet normal -1.2246467991473532e-16 0.0 1.0
  outer loop
    vertex 406.25321681027384 58.09337765955542 223.36359094897335
    vertex 403.75321681027384 60.593377659555415 223.36359094897335
    vertex 406.25321681027384 55.09337765955538 223.36359094897335
  endloop
endfacet
facet normal -1.2246467991473532e-16 0.0 1.0
  outer loop
    vertex 406.25321681027384 55.09337765955538 223.36359094897335
    vertex 403.75321681027384 60.593377659555415 223.36359094897335
    vertex 406.25321681027384 10.093377659552898 223.36359094897335
  endloop
endfacet
facet normal -1.2246467991473532e-16 0.0 1.0
  outer loop
    vertex 406.25321681027384 10.093377659552898 223.36359094897335
    vertex 403.75321681027384 60.593377659555415 223.36359094897335
    vertex 406.25321681027384 7.093377659552858 223.36359094897335
  endloop
endfacet
facet normal -1.2246467991473532e-16 0.0 1.0
  outer loop
    vertex 468.0532168102741 4.593377659552885 223.36359094897335
    vertex 465.5532168102741 7.093377659552858 223.36359094897335
    vertex 403.75321681027384 4.593377659552885 223.36359094897335
  endloop
endfacet
facet normal -1.2246467991473532e-16 0.0 1.0
  outer loop
    vertex 465.5532168102741 7.093377659552858 223.36359094897335
    vertex 468.0532168102741 4.593377659552885 223.36359094897335
    vertex 465.5532168102741 58.09337765955542 223.36359094897335
  endloop
endfacet
facet normal -1.2246467991473532e-16 0.0 1.0
  outer loop
    vertex 465.5532168102741 7.093377659552858 223.36359094897335
    vertex 465.5532168102741 58.09337765955542 223.36359094897335
    vertex 465.5532168102741 55.09337765955538 223.36359094897335
  endloop
endfacet
facet normal -1.2246467991473532e-16 0.0 1.0
  outer loop
    vertex 465.5532168102741 7.093377659552858 223.36359094897335
    vertex 465.5532168102741 55.09337765955538 223.36359094897335
    vertex 465.5532168102741 10.093377659552898 223.36359094897335
  endloop
endfacet
facet normal -1.2246467991473532e-16 0.0 1.0
  outer loop
    vertex 403.75321681027384 4.593377659552885 223.36359094897335
    vertex 465.5532168102741 7.093377659552858 223.36359094897335
    vertex 462.55321681027414 7.093377659552858 223.36359094897335
  endloop
endfacet
facet normal -1.2246467991473532e-16 0.0 1.0
  outer loop
    vertex 403.75321681027384 4.593377659552885 223.36359094897335
    vertex 462.55321681027414 7.093377659552858 223.36359094897335
    vertex 461.053216810274 8.593377659552882 223.36359094897335
  endloop
endfacet
facet normal -1.2246467991473532e-16 0.0 1.0
  outer loop
    vertex 461.053216810274 8.593377659552882 223.36359094897335
    vertex 462.55321681027414 7.093377659552858 223.36359094897335
    vertex 461.053216810274 56.5933776595554 223.36359094897335
  endloop
endfacet
facet normal -1.2246467991473532e-16 0.0 1.0
  outer loop
    vertex 403.75321681027384 4.593377659552885 223.36359094897335
    vertex 461.053216810274 8.593377659552882 223.36359094897335
    vertex 409.25321681027384 7.093377659552858 223.36359094897335
  endloop
endfacet
facet normal -1.2246467991473532e-16 0.0 1.0
  outer loop
    vertex 409.25321681027384 7.093377659552858 223.36359094897335
    vertex 461.053216810274 8.593377659552882 223.36359094897335
    vertex 410.7532168102737 8.593377659552882 223.36359094897335
  endloop
endfacet
facet normal -1.2246467991473532e-16 0.0 1.0
  outer loop
    vertex 409.25321681027384 7.093377659552858 223.36359094897335
    vertex 410.7532168102737 8.593377659552882 223.36359094897335
    vertex 409.25321681027384 58.09337765955542 223.36359094897335
  endloop
endfacet
facet normal -1.2246467991473532e-16 0.0 1.0
  outer loop
    vertex 409.25321681027384 7.093377659552858 223.36359094897335
    vertex 409.25321681027384 58.09337765955542 223.36359094897335
    vertex 409.25321681027384 55.09337765955538 223.36359094897335
  endloop
endfacet
facet normal -1.2246467991473532e-16 0.0 1.0
  outer loop
    vertex 409.25321681027384 7.093377659552858 223.36359094897335
    vertex 409.25321681027384 55.09337765955538 223.36359094897335
    vertex 409.25321681027384 10.093377659552898 223.36359094897335
  endloop
endfacet
facet normal -1.2246467991473532e-16 0.0 1.0
  outer loop
    vertex 403.75321681027384 4.593377659552885 223.36359094897335
    vertex 409.25321681027384 7.093377659552858 223.36359094897335
    vertex 406.25321681027384 7.093377659552858 223.36359094897335
  endloop
endfacet
facet normal -1.2246467991473532e-16 0.0 1.0
  outer loop
    vertex 403.75321681027384 4.593377659552885 223.36359094897335
    vertex 406.25321681027384 7.093377659552858 223.36359094897335
    vertex 403.75321681027384 60.593377659555415 223.36359094897335
  endloop
endfacet
facet normal -1.2246467991473532e-16 0.0 1.0
  outer loop
    vertex 406.25321681027384 55.09337765955538 223.36359094897335
    vertex 409.25321681027384 10.093377659552898 223.36359094897335
    vertex 409.25321681027384 55.09337765955538 223.36359094897335
  endloop
endfacet
facet normal -1.2246467991473532e-16 0.0 1.0
  outer loop
    vertex 409.25321681027384 10.093377659552898 223.36359094897335
    vertex 406.25321681027384 55.09337765955538 223.36359094897335
    vertex 406.25321681027384 10.093377659552898 223.36359094897335
  endloop
endfacet
facet normal -1.2246467991473532e-16 0.0 1.0
  outer loop
    vertex 462.55321681027414 55.09337765955538 223.36359094897335
    vertex 465.5532168102741 10.093377659552898 223.36359094897335
    vertex 465.5532168102741 55.09337765955538 223.36359094897335
  endloop
endfacet
facet normal -1.2246467991473532e-16 0.0 1.0
  outer loop
    vertex 465.5532168102741 10.093377659552898 223.36359094897335
    vertex 462.55321681027414 55.09337765955538 223.36359094897335
    vertex 462.55321681027414 10.093377659552898 223.36359094897335
  endloop
endfacet
facet normal -1.0 0.0 -1.2246467991473532e-16
  outer loop
    vertex 468.0532168102741 60.593377659555415 248.36359094897335
    vertex 468.0532168102741 36.59337765955414 244.36359094897335
    vertex 468.0532168102741 36.59337765955414 248.36359094897335
  endloop
endfacet
facet normal -1.0 0.0 -1.2246467991473532e-16
  outer loop
    vertex 468.0532168102741 28.593377659554143 248.36359094897335
    vertex 468.0532168102741 4.593377659552885 223.36359094897335
    vertex 468.0532168102741 4.593377659552885 248.36359094897335
  endloop
endfacet
facet normal -1.0 0.0 -1.2246467991473532e-16
  outer loop
    vertex 468.0532168102741 4.593377659552885 223.36359094897335
    vertex 468.0532168102741 28.593377659554143 248.36359094897335
    vertex 468.0532168102741 28.593377659554143 244.36359094897335
  endloop
endfacet
facet normal -1.0 0.0 -1.2246467991473532e-16
  outer loop
    vertex 468.0532168102741 4.593377659552885 223.36359094897335
    vertex 468.0532168102741 28.593377659554143 244.36359094897335
    vertex 468.0532168102741 60.593377659555415 223.36359094897335
  endloop
endfacet
facet normal -1.0 0.0 -1.2246467991473532e-16
  outer loop
    vertex 468.0532168102741 60.593377659555415 223.36359094897335
    vertex 468.0532168102741 28.593377659554143 244.36359094897335
    vertex 468.0532168102741 36.59337765955414 244.36359094897335
  endloop
endfacet
facet normal -1.0 0.0 -1.2246467991473532e-16
  outer loop
    vertex 468.0532168102741 60.593377659555415 223.36359094897335
    vertex 468.0532168102741 36.59337765955414 244.36359094897335
    vertex 468.0532168102741 60.593377659555415 248.36359094897335
  endloop
endfacet
facet normal 0.0 1.0 0.0
  outer loop
    vertex 468.0532168102741 4.593377659552885 223.36359094897335
    vertex 403.75321681027384 4.593377659552885 248.36359094897335
    vertex 468.0532168102741 4.593377659552885 248.36359094897335
  endloop
endfacet
facet normal 0.0 1.0 0.0
  outer loop
    vertex 403.75321681027384 4.593377659552885 248.36359094897335
    vertex 468.0532168102741 4.593377659552885 223.36359094897335
    vertex 403.75321681027384 4.593377659552885 223.36359094897335
  endloop
endfacet
facet normal 1.0 0.0 1.2246467991473532e-16
  outer loop
    vertex 403.75321681027384 60.593377659555415 223.36359094897335
    vertex 403.75321681027384 4.593377659552885 248.36359094897335
    vertex 403.75321681027384 4.593377659552885 223.36359094897335
  endloop
endfacet
facet normal 1.0 0.0 1.2246467991473532e-16
  outer loop
    vertex 403.75321681027384 4.593377659552885 248.36359094897335
    vertex 403.75321681027384 60.593377659555415 223.36359094897335
    vertex 403.75321681027384 28.593377659554143 244.36359094897335
  endloop
endfacet
facet normal 1.0 0.0 1.2246467991473532e-16
  outer loop
    vertex 403.75321681027384 28.593377659554143 244.36359094897335
    vertex 403.75321681027384 60.593377659555415 223.36359094897335
    vertex 403.75321681027384 36.59337765955414 244.36359094897335
  endloop
endfacet
facet normal 1.0 0.0 1.2246467991473532e-16
  outer loop
    vertex 403.75321681027384 36.59337765955414 244.36359094897335
    vertex 403.75321681027384 60.593377659555415 223.36359094897335
    vertex 403.75321681027384 36.59337765955414 248.36359094897335
  endloop
endfacet
facet normal 1.0 0.0 1.2246467991473532e-16
  outer loop
    vertex 403.75321681027384 36.59337765955414 248.36359094897335
    vertex 403.75321681027384 60.593377659555415 223.36359094897335
    vertex 403.75321681027384 60.593377659555415 248.36359094897335
  endloop
endfacet
facet normal 1.0 0.0 1.2246467991473532e-16
  outer loop
    vertex 403.75321681027384 28.593377659554143 248.36359094897335
    vertex 403.75321681027384 4.593377659552885 248.36359094897335
    vertex 403.75321681027384 28.593377659554143 244.36359094897335
  endloop
endfacet
facet normal 1.0 -2.819966482547897e-16 1.2246467991473532e-16
  outer loop
    vertex 477.0532168102741 19.593377659552885 220.36359094897335
    vertex 477.0532168102741 1.5933776595528828 248.36359094897335
    vertex 477.0532168102741 1.5933776595528828 220.36359094897335
  endloop
endfacet
facet normal 1.0 -2.819966482547897e-16 1.2246467991473532e-16
  outer loop
    vertex 477.0532168102741 1.5933776595528828 248.36359094897335
    vertex 477.0532168102741 19.593377659552885 220.36359094897335
    vertex 477.0532168102741 19.593377659552885 248.36359094897335
  endloop
endfacet
facet normal 1.0 2.0735047665791926e-17 6.132514964536174e-17
  outer loop
    vertex 471.05321681027414 48.5933776595554 222.36359094897335
    vertex 471.05321681027414 16.593377659552885 248.36359094897335
    vertex 471.05321681027414 16.593377659552885 222.36359094897335
  endloop
endfacet
facet normal 1.0 2.0735047665791926e-17 6.132514964536174e-17
  outer loop
    vertex 471.05321681027414 16.593377659552885 248.36359094897335
    vertex 471.05321681027414 48.5933776595554 222.36359094897335
    vertex 471.05321681027414 28.593377659554143 244.36359094897335
  endloop
endfacet
facet normal 1.0 2.0735047665791926e-17 6.132514964536174e-17
  outer loop
    vertex 471.05321681027414 28.593377659554143 244.36359094897335
    vertex 471.05321681027414 48.5933776595554 222.36359094897335
    vertex 471.05321681027414 36.59337765955414 244.36359094897335
  endloop
endfacet
facet normal 1.0 2.0735047665791926e-17 6.132514964536174e-17
  outer loop
    vertex 471.05321681027414 36.59337765955414 244.36359094897335
    vertex 471.05321681027414 48.5933776595554 222.36359094897335
    vertex 471.05321681027414 36.59337765955414 248.36359094897335
  endloop
endfacet
facet normal 1.0 2.0735047665791926e-17 6.132514964536174e-17
  outer loop
    vertex 471.05321681027414 36.59337765955414 248.36359094897335
    vertex 471.05321681027414 48.5933776595554 222.36359094897335
    vertex 471.05321681027414 48.5933776595554 248.36359094897335
  endloop
endfacet
facet normal 1.0 2.0735047665791926e-17 6.132514964536174e-17
  outer loop
    vertex 471.05321681027414 28.593377659554143 248.36359094897335
    vertex 471.05321681027414 16.593377659552885 248.36359094897335
    vertex 471.05321681027414 28.593377659554143 244.36359094897335
  endloop
endfacet
facet normal 1.0 1.9974762584714266e-16 1.2246467991473532e-16
  outer loop
    vertex 477.0532168102741 63.59337765955541 220.36359094897335
    vertex 477.0532168102741 45.5933776595554 248.36359094897335
    vertex 477.0532168102741 45.5933776595554 220.36359094897335
  endloop
endfacet
facet normal 1.0 1.9974762584714266e-16 1.2246467991473532e-16
  outer loop
    vertex 477.0532168102741 45.5933776595554 248.36359094897335
    vertex 477.0532168102741 63.59337765955541 220.36359094897335
    vertex 477.0532168102741 63.59337765955541 248.36359094897335
  endloop
endfacet
facet normal 0.0 -1.0 -0.0
  outer loop
    vertex 471.05321681027414 48.5933776595554 222.36359094897335
    vertex 474.0532168102741 48.5933776595554 248.36359094897335
    vertex 471.05321681027414 48.5933776595554 248.36359094897335
  endloop
endfacet
facet normal 0.0 -1.0 -0.0
  outer loop
    vertex 474.0532168102741 48.5933776595554 248.36359094897335
    vertex 471.05321681027414 48.5933776595554 222.36359094897335
    vertex 474.0532168102741 48.5933776595554 222.36359094897335
  endloop
endfacet
facet normal 0.0 1.0 0.0
  outer loop
    vertex 474.0532168102741 16.593377659552885 222.36359094897335
    vertex 471.05321681027414 16.593377659552885 248.36359094897335
    vertex 474.0532168102741 16.593377659552885 248.36359094897335
  endloop
endfacet
facet normal 0.0 1.0 0.0
  outer loop
    vertex 471.05321681027414 16.593377659552885 248.36359094897335
    vertex 474.0532168102741 16.593377659552885 222.36359094897335
    vertex 471.05321681027414 16.593377659552885 222.36359094897335
  endloop
endfacet
facet normal 0.0 -1.0 -0.0
  outer loop
    vertex 474.0532168102741 45.5933776595554 222.36359094897335
    vertex 477.0532168102741 45.5933776595554 248.36359094897335
    vertex 474.0532168102741 45.5933776595554 248.36359094897335
  endloop
endfacet
facet normal 0.0 -1.0 -0.0
  outer loop
    vertex 477.0532168102741 45.5933776595554 248.36359094897335
    vertex 474.0532168102741 45.5933776595554 222.36359094897335
    vertex 477.0532168102741 45.5933776595554 220.36359094897335
  endloop
endfacet
facet normal 0.0 -1.0 -0.0
  outer loop
    vertex 477.0532168102741 45.5933776595554 220.36359094897335
    vertex 474.0532168102741 45.5933776595554 222.36359094897335
    vertex 475.0532168102741 45.5933776595554 220.36359094897335
  endloop
endfacet
facet normal -1.0 0.0 -1.2246467991473532e-16
  outer loop
    vertex 474.0532168102741 48.5933776595554 248.36359094897335
    vertex 474.0532168102741 45.5933776595554 222.36359094897335
    vertex 474.0532168102741 45.5933776595554 248.36359094897335
  endloop
endfacet
facet normal -1.0 0.0 -1.2246467991473532e-16
  outer loop
    vertex 474.0532168102741 45.5933776595554 222.36359094897335
    vertex 474.0532168102741 48.5933776595554 248.36359094897335
    vertex 474.0532168102741 48.5933776595554 222.36359094897335
  endloop
endfacet
facet normal 9.772025948622078e-16 1.0 1.2010311221770256e-17
  outer loop
    vertex 477.0532168102741 19.593377659552885 220.36359094897335
    vertex 474.0532168102741 19.593377659552885 248.36359094897335
    vertex 477.0532168102741 19.593377659552885 248.36359094897335
  endloop
endfacet
facet normal 9.772025948622078e-16 1.0 1.2010311221770256e-17
  outer loop
    vertex 474.0532168102741 19.593377659552885 248.36359094897335
    vertex 477.0532168102741 19.593377659552885 220.36359094897335
    vertex 474.0532168102741 19.593377659552885 222.36359094897335
  endloop
endfacet
facet normal 9.772025948622078e-16 1.0 1.2010311221770256e-17
  outer loop
    vertex 474.0532168102741 19.593377659552885 222.36359094897335
    vertex 477.0532168102741 19.593377659552885 220.36359094897335
    vertex 475.0532168102741 19.593377659552885 220.36359094897335
  endloop
endfacet
facet normal -1.0 8.2249022407647e-16 -5.467702408425702e-17
  outer loop
    vertex 474.0532168102741 19.593377659552885 248.36359094897335
    vertex 474.0532168102741 16.593377659552885 222.36359094897335
    vertex 474.0532168102741 16.593377659552885 248.36359094897335
  endloop
endfacet
facet normal -1.0 8.2249022407647e-16 -5.467702408425702e-17
  outer loop
    vertex 474.0532168102741 16.593377659552885 222.36359094897335
    vertex 474.0532168102741 19.593377659552885 248.36359094897335
    vertex 474.0532168102741 19.593377659552885 222.36359094897335
  endloop
endfacet
facet normal -1.2246467991473525e-16 1.2713604426217216e-31 1.0
  outer loop
    vertex 468.0532168102741 28.593377659554143 248.36359094897335
    vertex 471.05321681027414 16.593377659552885 248.36359094897335
    vertex 471.05321681027414 28.593377659554143 248.36359094897335
  endloop
endfacet
facet normal -1.2246467991473525e-16 1.2713604426217216e-31 1.0
  outer loop
    vertex 403.75321681027384 28.593377659554143 248.36359094897335
    vertex 400.95321681027383 19.793377659552885 248.36359094897335
    vertex 403.75321681027384 4.593377659552885 248.36359094897335
  endloop
endfacet
facet normal -1.2246467991473525e-16 1.2713604426217216e-31 1.0
  outer loop
    vertex 400.95321681027383 19.793377659552885 248.36359094897335
    vertex 403.75321681027384 28.593377659554143 248.36359094897335
    vertex 394.9532168102739 28.593377659554143 248.36359094897335
  endloop
endfacet
facet normal -1.2246467991473525e-16 1.2713604426217216e-31 1.0
  outer loop
    vertex 400.95321681027383 19.793377659552885 248.36359094897335
    vertex 394.9532168102739 28.593377659554143 248.36359094897335
    vertex 397.55321681027385 19.793377659552885 248.36359094897335
  endloop
endfacet
facet normal -1.2246467991473525e-16 1.2713604426217216e-31 1.0
  outer loop
    vertex 397.55321681027385 19.793377659552885 248.36359094897335
    vertex 394.9532168102739 28.593377659554143 248.36359094897335
    vertex 397.55321681027385 16.793377659552885 248.36359094897335
  endloop
endfacet
facet normal -1.2246467991473525e-16 1.2713604426217216e-31 1.0
  outer loop
    vertex 397.55321681027385 16.793377659552885 248.36359094897335
    vertex 394.9532168102739 28.593377659554143 248.36359094897335
    vertex 394.9532168102739 16.793377659552885 248.36359094897335
  endloop
endfacet
facet normal -1.2246467991473525e-16 1.2713604426217216e-31 1.0
  outer loop
    vertex 474.0532168102741 19.593377659552885 248.36359094897335
    vertex 477.0532168102741 1.5933776595528828 248.36359094897335
    vertex 477.0532168102741 19.593377659552885 248.36359094897335
  endloop
endfacet
facet normal -1.2246467991473525e-16 1.2713604426217216e-31 1.0
  outer loop
    vertex 477.0532168102741 1.5933776595528828 248.36359094897335
    vertex 474.0532168102741 19.593377659552885 248.36359094897335
    vertex 474.0532168102741 16.593377659552885 248.36359094897335
  endloop
endfacet
facet normal -1.2246467991473525e-16 1.2713604426217216e-31 1.0
  outer loop
    vertex 477.0532168102741 1.5933776595528828 248.36359094897335
    vertex 474.0532168102741 16.593377659552885 248.36359094897335
    vertex 468.0532168102741 4.593377659552885 248.36359094897335
  endloop
endfacet
facet normal -1.2246467991473525e-16 1.2713604426217216e-31 1.0
  outer loop
    vertex 477.0532168102741 1.5933776595528828 248.36359094897335
    vertex 468.0532168102741 4.593377659552885 248.36359094897335
    vertex 400.95321681027383 1.5933776595528846 248.36359094897335
  endloop
endfacet
facet normal -1.2246467991473525e-16 1.2713604426217216e-31 1.0
  outer loop
    vertex 468.0532168102741 4.593377659552885 248.36359094897335
    vertex 474.0532168102741 16.593377659552885 248.36359094897335
    vertex 471.05321681027414 16.593377659552885 248.36359094897335
  endloop
endfacet
facet normal -1.2246467991473525e-16 1.2713604426217216e-31 1.0
  outer loop
    vertex 468.0532168102741 4.593377659552885 248.36359094897335
    vertex 471.05321681027414 16.593377659552885 248.36359094897335
    vertex 468.0532168102741 28.593377659554143 248.36359094897335
  endloop
endfacet
facet normal -1.2246467991473525e-16 1.2713604426217216e-31 1.0
  outer loop
    vertex 400.95321681027383 1.5933776595528846 248.36359094897335
    vertex 468.0532168102741 4.593377659552885 248.36359094897335
    vertex 403.75321681027384 4.593377659552885 248.36359094897335
  endloop
endfacet
facet normal -1.2246467991473525e-16 1.2713604426217216e-31 1.0
  outer loop
    vertex 400.95321681027383 1.5933776595528846 248.36359094897335
    vertex 403.75321681027384 4.593377659552885 248.36359094897335
    vertex 400.95321681027383 19.793377659552885 248.36359094897335
  endloop
endfacet
facet normal -1.2246467991473532e-16 0.0 1.0
  outer loop
    vertex 468.0532168102741 36.59337765955414 244.36359094897335
    vertex 471.05321681027414 28.593377659554143 244.36359094897335
    vertex 471.05321681027414 36.59337765955414 244.36359094897335
  endloop
endfacet
facet normal -1.2246467991473532e-16 0.0 1.0
  outer loop
    vertex 471.05321681027414 28.593377659554143 244.36359094897335
    vertex 468.0532168102741 36.59337765955414 244.36359094897335
    vertex 468.0532168102741 28.593377659554143 244.36359094897335
  endloop
endfacet
facet normal 0.0 1.0 0.0
  outer loop
    vertex 471.05321681027414 28.593377659554143 244.36359094897335
    vertex 468.0532168102741 28.593377659554143 248.36359094897335
    vertex 471.05321681027414 28.593377659554143 248.36359094897335
  endloop
endfacet
facet normal 0.0 1.0 0.0
  outer loop
    vertex 468.0532168102741 28.593377659554143 248.36359094897335
    vertex 471.05321681027414 28.593377659554143 244.36359094897335
    vertex 468.0532168102741 28.593377659554143 244.36359094897335
  endloop
endfacet
facet normal 0.0 -1.0 -0.0
  outer loop
    vertex 468.0532168102741 36.59337765955414 244.36359094897335
    vertex 471.05321681027414 36.59337765955414 248.36359094897335
    vertex 468.0532168102741 36.59337765955414 248.36359094897335
  endloop
endfacet
facet normal 0.0 -1.0 -0.0
  outer loop
    vertex 471.05321681027414 36.59337765955414 248.36359094897335
    vertex 468.0532168102741 36.59337765955414 244.36359094897335
    vertex 471.05321681027414 36.59337765955414 244.36359094897335
  endloop
endfacet
facet normal -1.0 0.0 -1.2246467991473532e-16
  outer loop
    vertex 401.1532168102739 63.59337765955541 248.36359094897335
    vertex 401.1532168102739 45.393377659555405 220.36359094897335
    vertex 401.1532168102739 45.393377659555405 248.36359094897335
  endloop
endfacet
facet normal -1.0 0.0 -1.2246467991473532e-16
  outer loop
    vertex 401.1532168102739 45.393377659555405 220.36359094897335
    vertex 401.1532168102739 63.59337765955541 248.36359094897335
    vertex 401.1532168102739 63.59337765955541 220.36359094897335
  endloop
endfacet
facet normal 0.0 1.0 0.0
  outer loop
    vertex 401.1532168102739 45.393377659555405 220.36359094897335
    vertex 397.55321681027385 45.393377659555405 248.36359094897335
    vertex 401.1532168102739 45.393377659555405 248.36359094897335
  endloop
endfacet
facet normal 0.0 1.0 0.0
  outer loop
    vertex 397.55321681027385 45.393377659555405 248.36359094897335
    vertex 401.1532168102739 45.393377659555405 220.36359094897335
    vertex 397.55321681027385 45.393377659555405 220.36359094897335
  endloop
endfacet
facet normal 0.0 1.0 0.0
  outer loop
    vertex 397.55321681027385 48.393377659555405 220.36359094897335
    vertex 394.9532168102739 48.393377659555405 248.36359094897335
    vertex 397.55321681027385 48.393377659555405 248.36359094897335
  endloop
endfacet
facet normal 0.0 1.0 0.0
  outer loop
    vertex 394.9532168102739 48.393377659555405 248.36359094897335
    vertex 397.55321681027385 48.393377659555405 220.36359094897335
    vertex 394.9532168102739 48.393377659555405 220.36359094897335
  endloop
endfacet
facet normal 1.0 0.0 1.2246467991473532e-16
  outer loop
    vertex 397.55321681027385 48.393377659555405 220.36359094897335
    vertex 397.55321681027385 45.393377659555405 248.36359094897335
    vertex 397.55321681027385 45.393377659555405 220.36359094897335
  endloop
endfacet
facet normal 1.0 0.0 1.2246467991473532e-16
  outer loop
    vertex 397.55321681027385 45.393377659555405 248.36359094897335
    vertex 397.55321681027385 48.393377659555405 220.36359094897335
    vertex 397.55321681027385 48.393377659555405 248.36359094897335
  endloop
endfacet
facet normal 0.0 -1.0 -0.0
  outer loop
    vertex 397.55321681027385 19.793377659552885 220.36359094897335
    vertex 400.95321681027383 19.793377659552885 248.36359094897335
    vertex 397.55321681027385 19.793377659552885 248.36359094897335
  endloop
endfacet
facet normal 0.0 -1.0 -0.0
  outer loop
    vertex 400.95321681027383 19.793377659552885 248.36359094897335
    vertex 397.55321681027385 19.793377659552885 220.36359094897335
    vertex 400.95321681027383 19.793377659552885 220.36359094897335
  endloop
endfacet
facet normal 0.0 -1.0 -0.0
  outer loop
    vertex 394.9532168102739 16.793377659552885 220.36359094897335
    vertex 397.55321681027385 16.793377659552885 248.36359094897335
    vertex 394.9532168102739 16.793377659552885 248.36359094897335
  endloop
endfacet
facet normal 0.0 -1.0 -0.0
  outer loop
    vertex 397.55321681027385 16.793377659552885 248.36359094897335
    vertex 394.9532168102739 16.793377659552885 220.36359094897335
    vertex 397.55321681027385 16.793377659552885 220.36359094897335
  endloop
endfacet
facet normal 1.0 0.0 1.2246467991473532e-16
  outer loop
    vertex 397.55321681027385 19.793377659552885 220.36359094897335
    vertex 397.55321681027385 16.793377659552885 248.36359094897335
    vertex 397.55321681027385 16.793377659552885 220.36359094897335
  endloop
endfacet
facet normal 1.0 0.0 1.2246467991473532e-16
  outer loop
    vertex 397.55321681027385 16.793377659552885 248.36359094897335
    vertex 397.55321681027385 19.793377659552885 220.36359094897335
    vertex 397.55321681027385 19.793377659552885 248.36359094897335
  endloop
endfacet
facet normal -0.8944271909999151 6.432952296758665e-16 -0.44721359549995954
  outer loop
    vertex 474.0532168102741 16.593377659552885 222.36359094897335
    vertex 475.0532168102741 19.593377659552885 220.36359094897335
    vertex 475.0532168102741 15.593377659552887 220.36359094897335
  endloop
endfacet
facet normal -0.8944271909999151 6.432952296758665e-16 -0.44721359549995954
  outer loop
    vertex 475.0532168102741 19.593377659552885 220.36359094897335
    vertex 474.0532168102741 16.593377659552885 222.36359094897335
    vertex 474.0532168102741 19.593377659552885 222.36359094897335
  endloop
endfacet
facet normal 5.476786982642026e-17 -0.8944271909999159 -0.4472135954999579
  outer loop
    vertex 470.0532168102741 49.593377659555394 220.36359094897335
    vertex 474.0532168102741 48.5933776595554 222.36359094897335
    vertex 471.05321681027414 48.5933776595554 222.36359094897335
  endloop
endfacet
facet normal 5.476786982642026e-17 -0.8944271909999159 -0.4472135954999579
  outer loop
    vertex 474.0532168102741 48.5933776595554 222.36359094897335
    vertex 470.0532168102741 49.593377659555394 220.36359094897335
    vertex 475.0532168102741 49.593377659555394 220.36359094897335
  endloop
endfacet
facet normal 0.8944271909999159 1.9285703222754646e-17 -0.4472135954999583
  outer loop
    vertex 470.0532168102741 49.593377659555394 220.36359094897335
    vertex 471.05321681027414 16.593377659552885 222.36359094897335
    vertex 470.0532168102741 15.593377659552887 220.36359094897335
  endloop
endfacet
facet normal 0.8944271909999159 1.9285703222754646e-17 -0.4472135954999583
  outer loop
    vertex 471.05321681027414 16.593377659552885 222.36359094897335
    vertex 470.0532168102741 49.593377659555394 220.36359094897335
    vertex 471.05321681027414 48.5933776595554 222.36359094897335
  endloop
endfacet
facet normal -0.8944271909999156 0.0 -0.44721359549995826
  outer loop
    vertex 474.0532168102741 48.5933776595554 222.36359094897335
    vertex 475.0532168102741 45.5933776595554 220.36359094897335
    vertex 474.0532168102741 45.5933776595554 222.36359094897335
  endloop
endfacet
facet normal -0.8944271909999156 0.0 -0.44721359549995826
  outer loop
    vertex 475.0532168102741 45.5933776595554 220.36359094897335
    vertex 474.0532168102741 48.5933776595554 222.36359094897335
    vertex 475.0532168102741 49.593377659555394 220.36359094897335
  endloop
endfacet
facet normal 4.7407429870955887e-17 0.8944271909999155 -0.44721359549995904
  outer loop
    vertex 475.0532168102741 15.593377659552887 220.36359094897335
    vertex 471.05321681027414 16.593377659552885 222.36359094897335
    vertex 474.0532168102741 16.593377659552885 222.36359094897335
  endloop
endfacet
facet normal 4.7407429870955887e-17 0.8944271909999155 -0.44721359549995904
  outer loop
    vertex 471.05321681027414 16.593377659552885 222.36359094897335
    vertex 475.0532168102741 15.593377659552887 220.36359094897335
    vertex 470.0532168102741 15.593377659552887 220.36359094897335
  endloop
endfacet
facet normal -1.0 0.0 -1.2246467991473532e-16
  outer loop
    vertex 394.9532168102739 48.393377659555405 248.36359094897335
    vertex 394.9532168102739 36.59337765955414 244.36359094897335
    vertex 394.9532168102739 36.59337765955414 248.36359094897335
  endloop
endfacet
facet normal -1.0 0.0 -1.2246467991473532e-16
  outer loop
    vertex 394.9532168102739 28.593377659554143 248.36359094897335
    vertex 394.9532168102739 16.793377659552885 220.36359094897335
    vertex 394.9532168102739 16.793377659552885 248.36359094897335
  endloop
endfacet
facet normal -1.0 0.0 -1.2246467991473532e-16
  outer loop
    vertex 394.9532168102739 16.793377659552885 220.36359094897335
    vertex 394.9532168102739 28.593377659554143 248.36359094897335
    vertex 394.9532168102739 28.593377659554143 244.36359094897335
  endloop
endfacet
facet normal -1.0 0.0 -1.2246467991473532e-16
  outer loop
    vertex 394.9532168102739 16.793377659552885 220.36359094897335
    vertex 394.9532168102739 28.593377659554143 244.36359094897335
    vertex 394.9532168102739 48.393377659555405 220.36359094897335
  endloop
endfacet
facet normal -1.0 0.0 -1.2246467991473532e-16
  outer loop
    vertex 394.9532168102739 48.393377659555405 220.36359094897335
    vertex 394.9532168102739 28.593377659554143 244.36359094897335
    vertex 394.9532168102739 36.59337765955414 244.36359094897335
  endloop
endfacet
facet normal -1.0 0.0 -1.2246467991473532e-16
  outer loop
    vertex 394.9532168102739 48.393377659555405 220.36359094897335
    vertex 394.9532168102739 36.59337765955414 244.36359094897335
    vertex 394.9532168102739 48.393377659555405 248.36359094897335
  endloop
endfacet
facet normal 0.0 -1.0 -0.0
  outer loop
    vertex 394.9532168102739 36.59337765955414 244.36359094897335
    vertex 403.75321681027384 36.59337765955414 248.36359094897335
    vertex 394.9532168102739 36.59337765955414 248.36359094897335
  endloop
endfacet
facet normal 0.0 -1.0 -0.0
  outer loop
    vertex 403.75321681027384 36.59337765955414 248.36359094897335
    vertex 394.9532168102739 36.59337765955414 244.36359094897335
    vertex 403.75321681027384 36.59337765955414 244.36359094897335
  endloop
endfacet
facet normal -1.2246467991473532e-16 0.0 1.0
  outer loop
    vertex 394.9532168102739 36.59337765955414 244.36359094897335
    vertex 403.75321681027384 28.593377659554143 244.36359094897335
    vertex 403.75321681027384 36.59337765955414 244.36359094897335
  endloop
endfacet
facet normal -1.2246467991473532e-16 0.0 1.0
  outer loop
    vertex 403.75321681027384 28.593377659554143 244.36359094897335
    vertex 394.9532168102739 36.59337765955414 244.36359094897335
    vertex 394.9532168102739 28.593377659554143 244.36359094897335
  endloop
endfacet
facet normal 0.0 1.0 0.0
  outer loop
    vertex 403.75321681027384 28.593377659554143 244.36359094897335
    vertex 394.9532168102739 28.593377659554143 248.36359094897335
    vertex 403.75321681027384 28.593377659554143 248.36359094897335
  endloop
endfacet
facet normal 0.0 1.0 0.0
  outer loop
    vertex 394.9532168102739 28.593377659554143 248.36359094897335
    vertex 403.75321681027384 28.593377659554143 244.36359094897335
    vertex 394.9532168102739 28.593377659554143 244.36359094897335
  endloop
endfacet
facet normal -1.2246467991473544e-16 -2.8697152600186977e-31 1.0
  outer loop
    vertex 468.0532168102741 63.59337765955541 248.36359094897335
    vertex 477.0532168102741 45.5933776595554 248.36359094897335
    vertex 477.0532168102741 63.59337765955541 248.36359094897335
  endloop
endfacet
facet normal -1.2246467991473544e-16 -2.8697152600186977e-31 1.0
  outer loop
    vertex 477.0532168102741 45.5933776595554 248.36359094897335
    vertex 468.0532168102741 63.59337765955541 248.36359094897335
    vertex 474.0532168102741 48.5933776595554 248.36359094897335
  endloop
endfacet
facet normal -1.2246467991473544e-16 -2.8697152600186977e-31 1.0
  outer loop
    vertex 474.0532168102741 48.5933776595554 248.36359094897335
    vertex 468.0532168102741 63.59337765955541 248.36359094897335
    vertex 471.05321681027414 48.5933776595554 248.36359094897335
  endloop
endfacet
facet normal -1.2246467991473544e-16 -2.8697152600186977e-31 1.0
  outer loop
    vertex 471.05321681027414 48.5933776595554 248.36359094897335
    vertex 468.0532168102741 63.59337765955541 248.36359094897335
    vertex 471.05321681027414 36.59337765955414 248.36359094897335
  endloop
endfacet
facet normal -1.2246467991473544e-16 -2.8697152600186977e-31 1.0
  outer loop
    vertex 471.05321681027414 36.59337765955414 248.36359094897335
    vertex 468.0532168102741 63.59337765955541 248.36359094897335
    vertex 468.0532168102741 36.59337765955414 248.36359094897335
  endloop
endfacet
facet normal -1.2246467991473544e-16 -2.8697152600186977e-31 1.0
  outer loop
    vertex 468.0532168102741 36.59337765955414 248.36359094897335
    vertex 468.0532168102741 63.59337765955541 248.36359094897335
    vertex 468.0532168102741 60.593377659555415 248.36359094897335
  endloop
endfacet
facet normal -1.2246467991473544e-16 -2.8697152600186977e-31 1.0
  outer loop
    vertex 474.0532168102741 45.5933776595554 248.36359094897335
    vertex 477.0532168102741 45.5933776595554 248.36359094897335
    vertex 474.0532168102741 48.5933776595554 248.36359094897335
  endloop
endfacet
facet normal -1.2246467991473507e-16 -1.8114693443261122e-31 1.0
  outer loop
    vertex 394.9532168102739 48.393377659555405 248.36359094897335
    vertex 397.55321681027385 45.393377659555405 248.36359094897335
    vertex 397.55321681027385 48.393377659555405 248.36359094897335
  endloop
endfacet
facet normal -1.2246467991473507e-16 -1.8114693443261122e-31 1.0
  outer loop
    vertex 401.1532168102739 63.59337765955541 248.36359094897335
    vertex 403.75321681027384 60.593377659555415 248.36359094897335
    vertex 403.75321681027384 63.59337765955541 248.36359094897335
  endloop
endfacet
facet normal -1.2246467991473507e-16 -1.8114693443261122e-31 1.0
  outer loop
    vertex 403.75321681027384 60.593377659555415 248.36359094897335
    vertex 401.1532168102739 63.59337765955541 248.36359094897335
    vertex 403.75321681027384 36.59337765955414 248.36359094897335
  endloop
endfacet
facet normal -1.2246467991473507e-16 -1.8114693443261122e-31 1.0
  outer loop
    vertex 403.75321681027384 36.59337765955414 248.36359094897335
    vertex 401.1532168102739 63.59337765955541 248.36359094897335
    vertex 401.1532168102739 45.393377659555405 248.36359094897335
  endloop
endfacet
facet normal -1.2246467991473507e-16 -1.8114693443261122e-31 1.0
  outer loop
    vertex 403.75321681027384 36.59337765955414 248.36359094897335
    vertex 401.1532168102739 45.393377659555405 248.36359094897335
    vertex 394.9532168102739 36.59337765955414 248.36359094897335
  endloop
endfacet
facet normal -1.2246467991473507e-16 -1.8114693443261122e-31 1.0
  outer loop
    vertex 394.9532168102739 36.59337765955414 248.36359094897335
    vertex 401.1532168102739 45.393377659555405 248.36359094897335
    vertex 397.55321681027385 45.393377659555405 248.36359094897335
  endloop
endfacet
facet normal -1.2246467991473507e-16 -1.8114693443261122e-31 1.0
  outer loop
    vertex 394.9532168102739 36.59337765955414 248.36359094897335
    vertex 397.55321681027385 45.393377659555405 248.36359094897335
    vertex 394.9532168102739 48.393377659555405 248.36359094897335
  endloop
endfacet
facet normal -1.2246467991473532e-16 0.0 1.0
  outer loop
    vertex 403.75321681027384 63.59337765955541 223.36359094897335
    vertex 468.0532168102741 60.593377659555415 223.36359094897335
    vertex 468.0532168102741 63.59337765955541 223.36359094897335
  endloop
endfacet
facet normal -1.2246467991473532e-16 0.0 1.0
  outer loop
    vertex 468.0532168102741 60.593377659555415 223.36359094897335
    vertex 403.75321681027384 63.59337765955541 223.36359094897335
    vertex 403.75321681027384 60.593377659555415 223.36359094897335
  endloop
endfacet
facet normal 1.0 0.0 1.2246467991473532e-16
  outer loop
    vertex 403.75321681027384 63.59337765955541 223.36359094897335
    vertex 403.75321681027384 60.593377659555415 248.36359094897335
    vertex 403.75321681027384 60.593377659555415 223.36359094897335
  endloop
endfacet
facet normal 1.0 0.0 1.2246467991473532e-16
  outer loop
    vertex 403.75321681027384 60.593377659555415 248.36359094897335
    vertex 403.75321681027384 63.59337765955541 223.36359094897335
    vertex 403.75321681027384 63.59337765955541 248.36359094897335
  endloop
endfacet
facet normal -1.0 0.0 -1.2246467991473532e-16
  outer loop
    vertex 468.0532168102741 63.59337765955541 248.36359094897335
    vertex 468.0532168102741 60.593377659555415 223.36359094897335
    vertex 468.0532168102741 60.593377659555415 248.36359094897335
  endloop
endfacet
facet normal -1.0 0.0 -1.2246467991473532e-16
  outer loop
    vertex 468.0532168102741 60.593377659555415 223.36359094897335
    vertex 468.0532168102741 63.59337765955541 248.36359094897335
    vertex 468.0532168102741 63.59337765955541 223.36359094897335
  endloop
endfacet
endsolid LIXIE_MODULAR_RELEASE_VERSION
