solid LIXIE_MODULAR_RELEASE_VERSION
facet normal 1.0 0.0 0.0
  outer loop
    vertex 118.53126639993154 10.093377659552898 220.61379161910804
    vertex 118.53126639993154 7.093377659552858 223.613791619108
    vertex 118.53126639993154 7.093377659552858 220.61379161910804
  endloop
endfacet
facet normal 1.0 0.0 0.0
  outer loop
    vertex 118.53126639993154 7.093377659552858 223.613791619108
    vertex 118.53126639993154 10.093377659552898 220.61379161910804
    vertex 118.53126639993154 10.093377659552898 223.613791619108
  endloop
endfacet
facet normal 0.0 1.0 0.0
  outer loop
    vertex 59.631266399931505 63.59337765955541 223.613791619108
    vertex 59.73126639993128 63.59337765955541 195.61379161910804
    vertex 59.631266399931505 63.59337765955541 195.61379161910804
  endloop
endfacet
facet normal 0.0 1.0 0.0
  outer loop
    vertex 59.73126639993128 63.59337765955541 195.61379161910804
    vertex 59.631266399931505 63.59337765955541 223.613791619108
    vertex 59.73126639993128 63.59337765955541 220.61379161910804
  endloop
endfacet
facet normal 0.0 1.0 0.0
  outer loop
    vertex 59.73126639993128 63.59337765955541 220.61379161910804
    vertex 59.631266399931505 63.59337765955541 223.613791619108
    vertex 124.0312663999315 63.59337765955541 220.61379161910804
  endloop
endfacet
facet normal 0.0 1.0 0.0
  outer loop
    vertex 124.0312663999315 63.59337765955541 220.61379161910804
    vertex 126.63126639993149 63.59337765955541 195.61379161910804
    vertex 124.0312663999315 63.59337765955541 195.61379161910804
  endloop
endfacet
facet normal 0.0 1.0 0.0
  outer loop
    vertex 126.63126639993149 63.59337765955541 195.61379161910804
    vertex 124.0312663999315 63.59337765955541 220.61379161910804
    vertex 126.63126639993149 63.59337765955541 223.613791619108
  endloop
endfacet
facet normal 0.0 1.0 0.0
  outer loop
    vertex 126.63126639993149 63.59337765955541 223.613791619108
    vertex 124.0312663999315 63.59337765955541 220.61379161910804
    vertex 59.631266399931505 63.59337765955541 223.613791619108
  endloop
endfacet
facet normal 1.0 0.0 0.0
  outer loop
    vertex 126.8312663999315 19.793377659552885 195.61379161910804
    vertex 126.8312663999315 1.5933776595528846 223.613791619108
    vertex 126.8312663999315 1.5933776595528846 195.61379161910804
  endloop
endfacet
facet normal 1.0 0.0 0.0
  outer loop
    vertex 126.8312663999315 1.5933776595528846 223.613791619108
    vertex 126.8312663999315 19.793377659552885 195.61379161910804
    vertex 126.8312663999315 19.793377659552885 223.613791619108
  endloop
endfacet
facet normal 0.0 1.0 0.0
  outer loop
    vertex 118.53126639993154 7.093377659552858 223.613791619108
    vertex 121.53126639993152 7.093377659552858 220.61379161910804
    vertex 118.53126639993154 7.093377659552858 220.61379161910804
  endloop
endfacet
facet normal 0.0 1.0 0.0
  outer loop
    vertex 121.53126639993152 7.093377659552858 220.61379161910804
    vertex 118.53126639993154 7.093377659552858 223.613791619108
    vertex 121.53126639993152 7.093377659552858 223.613791619108
  endloop
endfacet
facet normal 2.0981893471338526e-17 -1.0 2.7241215229526e-47
  outer loop
    vertex 126.8312663999315 1.5933776595528846 223.613791619108
    vertex 59.631266399931505 1.593377659552883 195.61379161910804
    vertex 126.8312663999315 1.5933776595528846 195.61379161910804
  endloop
endfacet
facet normal 2.0981893471338526e-17 -1.0 2.7241215229526e-47
  outer loop
    vertex 59.631266399931505 1.593377659552883 195.61379161910804
    vertex 126.8312663999315 1.5933776595528846 223.613791619108
    vertex 59.631266399931505 1.593377659552883 223.613791619108
  endloop
endfacet
facet normal -1.0 0.0 0.0
  outer loop
    vertex 65.2312663999312 58.09337765955542 223.613791619108
    vertex 65.2312663999312 55.09337765955538 220.61379161910804
    vertex 65.2312663999312 55.09337765955538 223.613791619108
  endloop
endfacet
facet normal -1.0 0.0 0.0
  outer loop
    vertex 65.2312663999312 55.09337765955538 220.61379161910804
    vertex 65.2312663999312 58.09337765955542 223.613791619108
    vertex 65.2312663999312 58.09337765955542 220.61379161910804
  endloop
endfacet
facet normal -1.0 0.0 0.0
  outer loop
    vertex 121.53126639993152 58.09337765955542 223.613791619108
    vertex 121.53126639993152 55.09337765955538 220.61379161910804
    vertex 121.53126639993152 55.09337765955538 223.613791619108
  endloop
endfacet
facet normal -1.0 0.0 0.0
  outer loop
    vertex 121.53126639993152 55.09337765955538 220.61379161910804
    vertex 121.53126639993152 58.09337765955542 223.613791619108
    vertex 121.53126639993152 58.09337765955542 220.61379161910804
  endloop
endfacet
facet normal 0.0 -1.0 0.0
  outer loop
    vertex 65.2312663999312 10.093377659552898 223.613791619108
    vertex 62.23126639993125 10.093377659552898 220.61379161910804
    vertex 65.2312663999312 10.093377659552898 220.61379161910804
  endloop
endfacet
facet normal 0.0 -1.0 0.0
  outer loop
    vertex 62.23126639993125 10.093377659552898 220.61379161910804
    vertex 65.2312663999312 10.093377659552898 223.613791619108
    vertex 62.23126639993125 10.093377659552898 223.613791619108
  endloop
endfacet
facet normal 0.0 1.0 0.0
  outer loop
    vertex 118.53126639993154 55.09337765955538 223.613791619108
    vertex 121.53126639993152 55.09337765955538 220.61379161910804
    vertex 118.53126639993154 55.09337765955538 220.61379161910804
  endloop
endfacet
facet normal 0.0 1.0 0.0
  outer loop
    vertex 121.53126639993152 55.09337765955538 220.61379161910804
    vertex 118.53126639993154 55.09337765955538 223.613791619108
    vertex 121.53126639993152 55.09337765955538 223.613791619108
  endloop
endfacet
facet normal 0.0 -1.0 0.0
  outer loop
    vertex 121.53126639993152 58.09337765955542 223.613791619108
    vertex 118.53126639993154 58.09337765955542 220.61379161910804
    vertex 121.53126639993152 58.09337765955542 220.61379161910804
  endloop
endfacet
facet normal 0.0 -1.0 0.0
  outer loop
    vertex 118.53126639993154 58.09337765955542 220.61379161910804
    vertex 121.53126639993152 58.09337765955542 223.613791619108
    vertex 118.53126639993154 58.09337765955542 223.613791619108
  endloop
endfacet
facet normal 1.0 0.0 0.0
  outer loop
    vertex 62.23126639993125 10.093377659552898 220.61379161910804
    vertex 62.23126639993125 7.093377659552858 223.613791619108
    vertex 62.23126639993125 7.093377659552858 220.61379161910804
  endloop
endfacet
facet normal 1.0 0.0 0.0
  outer loop
    vertex 62.23126639993125 7.093377659552858 223.613791619108
    vertex 62.23126639993125 10.093377659552898 220.61379161910804
    vertex 62.23126639993125 10.093377659552898 223.613791619108
  endloop
endfacet
facet normal -1.0 0.0 0.0
  outer loop
    vertex 121.53126639993152 10.093377659552898 223.613791619108
    vertex 121.53126639993152 7.093377659552858 220.61379161910804
    vertex 121.53126639993152 7.093377659552858 223.613791619108
  endloop
endfacet
facet normal -1.0 0.0 0.0
  outer loop
    vertex 121.53126639993152 7.093377659552858 220.61379161910804
    vertex 121.53126639993152 10.093377659552898 223.613791619108
    vertex 121.53126639993152 10.093377659552898 220.61379161910804
  endloop
endfacet
facet normal 1.0 0.0 0.0
  outer loop
    vertex 62.23126639993125 58.09337765955542 220.61379161910804
    vertex 62.23126639993125 55.09337765955538 223.613791619108
    vertex 62.23126639993125 55.09337765955538 220.61379161910804
  endloop
endfacet
facet normal 1.0 0.0 0.0
  outer loop
    vertex 62.23126639993125 55.09337765955538 223.613791619108
    vertex 62.23126639993125 58.09337765955542 220.61379161910804
    vertex 62.23126639993125 58.09337765955542 223.613791619108
  endloop
endfacet
facet normal 0.0 -1.0 0.0
  outer loop
    vertex 121.53126639993152 10.093377659552898 223.613791619108
    vertex 118.53126639993154 10.093377659552898 220.61379161910804
    vertex 121.53126639993152 10.093377659552898 220.61379161910804
  endloop
endfacet
facet normal 0.0 -1.0 0.0
  outer loop
    vertex 118.53126639993154 10.093377659552898 220.61379161910804
    vertex 121.53126639993152 10.093377659552898 223.613791619108
    vertex 118.53126639993154 10.093377659552898 223.613791619108
  endloop
endfacet
facet normal 0.0 -1.0 0.0
  outer loop
    vertex 65.2312663999312 58.09337765955542 223.613791619108
    vertex 62.23126639993125 58.09337765955542 220.61379161910804
    vertex 65.2312663999312 58.09337765955542 220.61379161910804
  endloop
endfacet
facet normal 0.0 -1.0 0.0
  outer loop
    vertex 62.23126639993125 58.09337765955542 220.61379161910804
    vertex 65.2312663999312 58.09337765955542 223.613791619108
    vertex 62.23126639993125 58.09337765955542 223.613791619108
  endloop
endfacet
facet normal 1.0 0.0 0.0
  outer loop
    vertex 118.53126639993154 58.09337765955542 220.61379161910804
    vertex 118.53126639993154 55.09337765955538 223.613791619108
    vertex 118.53126639993154 55.09337765955538 220.61379161910804
  endloop
endfacet
facet normal 1.0 0.0 0.0
  outer loop
    vertex 118.53126639993154 55.09337765955538 223.613791619108
    vertex 118.53126639993154 58.09337765955542 220.61379161910804
    vertex 118.53126639993154 58.09337765955542 223.613791619108
  endloop
endfacet
facet normal 0.0 1.0 0.0
  outer loop
    vertex 62.23126639993125 55.09337765955538 223.613791619108
    vertex 65.2312663999312 55.09337765955538 220.61379161910804
    vertex 62.23126639993125 55.09337765955538 220.61379161910804
  endloop
endfacet
facet normal 0.0 1.0 0.0
  outer loop
    vertex 65.2312663999312 55.09337765955538 220.61379161910804
    vertex 62.23126639993125 55.09337765955538 223.613791619108
    vertex 65.2312663999312 55.09337765955538 223.613791619108
  endloop
endfacet
facet normal 1.0 0.0 0.0
  outer loop
    vertex 66.73126639993131 56.5933776595554 220.61379161910804
    vertex 66.73126639993131 8.593377659552882 223.613791619108
    vertex 66.73126639993131 8.593377659552882 220.61379161910804
  endloop
endfacet
facet normal 1.0 0.0 0.0
  outer loop
    vertex 66.73126639993131 8.593377659552882 223.613791619108
    vertex 66.73126639993131 56.5933776595554 220.61379161910804
    vertex 66.73126639993131 56.5933776595554 223.613791619108
  endloop
endfacet
facet normal -1.0 -4.699944137579583e-16 0.0
  outer loop
    vertex 117.03126639993161 56.5933776595554 223.613791619108
    vertex 117.03126639993161 8.593377659552882 220.61379161910804
    vertex 117.03126639993161 8.593377659552882 223.613791619108
  endloop
endfacet
facet normal -1.0 -4.699944137579583e-16 0.0
  outer loop
    vertex 117.03126639993161 8.593377659552882 220.61379161910804
    vertex 117.03126639993161 56.5933776595554 223.613791619108
    vertex 117.03126639993161 56.5933776595554 220.61379161910804
  endloop
endfacet
facet normal 0.0 1.0 0.0
  outer loop
    vertex 66.73126639993131 8.593377659552882 223.613791619108
    vertex 117.03126639993161 8.593377659552882 220.61379161910804
    vertex 66.73126639993131 8.593377659552882 220.61379161910804
  endloop
endfacet
facet normal 0.0 1.0 0.0
  outer loop
    vertex 117.03126639993161 8.593377659552882 220.61379161910804
    vertex 66.73126639993131 8.593377659552882 223.613791619108
    vertex 117.03126639993161 8.593377659552882 223.613791619108
  endloop
endfacet
facet normal 0.0 1.0 0.0
  outer loop
    vertex 62.23126639993125 7.093377659552858 223.613791619108
    vertex 65.2312663999312 7.093377659552858 220.61379161910804
    vertex 62.23126639993125 7.093377659552858 220.61379161910804
  endloop
endfacet
facet normal 0.0 1.0 0.0
  outer loop
    vertex 65.2312663999312 7.093377659552858 220.61379161910804
    vertex 62.23126639993125 7.093377659552858 223.613791619108
    vertex 65.2312663999312 7.093377659552858 223.613791619108
  endloop
endfacet
facet normal -1.0 0.0 0.0
  outer loop
    vertex 65.2312663999312 10.093377659552898 223.613791619108
    vertex 65.2312663999312 7.093377659552858 220.61379161910804
    vertex 65.2312663999312 7.093377659552858 223.613791619108
  endloop
endfacet
facet normal -1.0 0.0 0.0
  outer loop
    vertex 65.2312663999312 7.093377659552858 220.61379161910804
    vertex 65.2312663999312 10.093377659552898 223.613791619108
    vertex 65.2312663999312 10.093377659552898 220.61379161910804
  endloop
endfacet
facet normal 0.0 -1.0 0.0
  outer loop
    vertex 117.03126639993161 56.5933776595554 223.613791619108
    vertex 66.73126639993131 56.5933776595554 220.61379161910804
    vertex 117.03126639993161 56.5933776595554 220.61379161910804
  endloop
endfacet
facet normal 0.0 -1.0 0.0
  outer loop
    vertex 66.73126639993131 56.5933776595554 220.61379161910804
    vertex 117.03126639993161 56.5933776595554 223.613791619108
    vertex 66.73126639993131 56.5933776595554 223.613791619108
  endloop
endfacet
facet normal 0.0 0.0 -1.0
  outer loop
    vertex 59.73126639993128 60.593377659555415 220.61379161910804
    vertex 62.23126639993125 58.09337765955542 220.61379161910804
    vertex 59.73126639993128 4.593377659552885 220.61379161910804
  endloop
endfacet
facet normal 0.0 0.0 -1.0
  outer loop
    vertex 62.23126639993125 58.09337765955542 220.61379161910804
    vertex 59.73126639993128 60.593377659555415 220.61379161910804
    vertex 124.0312663999315 60.593377659555415 220.61379161910804
  endloop
endfacet
facet normal 0.0 0.0 -1.0
  outer loop
    vertex 62.23126639993125 58.09337765955542 220.61379161910804
    vertex 124.0312663999315 60.593377659555415 220.61379161910804
    vertex 65.2312663999312 58.09337765955542 220.61379161910804
  endloop
endfacet
facet normal 0.0 0.0 -1.0
  outer loop
    vertex 65.2312663999312 58.09337765955542 220.61379161910804
    vertex 124.0312663999315 60.593377659555415 220.61379161910804
    vertex 66.73126639993131 56.5933776595554 220.61379161910804
  endloop
endfacet
facet normal 0.0 0.0 -1.0
  outer loop
    vertex 65.2312663999312 58.09337765955542 220.61379161910804
    vertex 66.73126639993131 56.5933776595554 220.61379161910804
    vertex 65.2312663999312 55.09337765955538 220.61379161910804
  endloop
endfacet
facet normal 0.0 0.0 -1.0
  outer loop
    vertex 65.2312663999312 55.09337765955538 220.61379161910804
    vertex 66.73126639993131 56.5933776595554 220.61379161910804
    vertex 65.2312663999312 10.093377659552898 220.61379161910804
  endloop
endfacet
facet normal 0.0 0.0 -1.0
  outer loop
    vertex 65.2312663999312 10.093377659552898 220.61379161910804
    vertex 66.73126639993131 56.5933776595554 220.61379161910804
    vertex 65.2312663999312 7.093377659552858 220.61379161910804
  endloop
endfacet
facet normal 0.0 0.0 -1.0
  outer loop
    vertex 66.73126639993131 56.5933776595554 220.61379161910804
    vertex 124.0312663999315 60.593377659555415 220.61379161910804
    vertex 118.53126639993154 58.09337765955542 220.61379161910804
  endloop
endfacet
facet normal 0.0 0.0 -1.0
  outer loop
    vertex 66.73126639993131 56.5933776595554 220.61379161910804
    vertex 118.53126639993154 58.09337765955542 220.61379161910804
    vertex 117.03126639993161 56.5933776595554 220.61379161910804
  endloop
endfacet
facet normal 0.0 0.0 -1.0
  outer loop
    vertex 117.03126639993161 56.5933776595554 220.61379161910804
    vertex 118.53126639993154 58.09337765955542 220.61379161910804
    vertex 117.03126639993161 8.593377659552882 220.61379161910804
  endloop
endfacet
facet normal 0.0 0.0 -1.0
  outer loop
    vertex 118.53126639993154 58.09337765955542 220.61379161910804
    vertex 124.0312663999315 60.593377659555415 220.61379161910804
    vertex 121.53126639993152 58.09337765955542 220.61379161910804
  endloop
endfacet
facet normal 0.0 0.0 -1.0
  outer loop
    vertex 121.53126639993152 58.09337765955542 220.61379161910804
    vertex 124.0312663999315 60.593377659555415 220.61379161910804
    vertex 121.53126639993152 55.09337765955538 220.61379161910804
  endloop
endfacet
facet normal 0.0 0.0 -1.0
  outer loop
    vertex 121.53126639993152 55.09337765955538 220.61379161910804
    vertex 124.0312663999315 60.593377659555415 220.61379161910804
    vertex 121.53126639993152 10.093377659552898 220.61379161910804
  endloop
endfacet
facet normal 0.0 0.0 -1.0
  outer loop
    vertex 121.53126639993152 10.093377659552898 220.61379161910804
    vertex 124.0312663999315 60.593377659555415 220.61379161910804
    vertex 121.53126639993152 7.093377659552858 220.61379161910804
  endloop
endfacet
facet normal 0.0 0.0 -1.0
  outer loop
    vertex 59.73126639993128 4.593377659552885 220.61379161910804
    vertex 62.23126639993125 7.093377659552858 220.61379161910804
    vertex 124.0312663999315 4.593377659552885 220.61379161910804
  endloop
endfacet
facet normal 0.0 0.0 -1.0
  outer loop
    vertex 62.23126639993125 7.093377659552858 220.61379161910804
    vertex 59.73126639993128 4.593377659552885 220.61379161910804
    vertex 62.23126639993125 58.09337765955542 220.61379161910804
  endloop
endfacet
facet normal 0.0 0.0 -1.0
  outer loop
    vertex 62.23126639993125 7.093377659552858 220.61379161910804
    vertex 62.23126639993125 58.09337765955542 220.61379161910804
    vertex 62.23126639993125 55.09337765955538 220.61379161910804
  endloop
endfacet
facet normal 0.0 0.0 -1.0
  outer loop
    vertex 62.23126639993125 7.093377659552858 220.61379161910804
    vertex 62.23126639993125 55.09337765955538 220.61379161910804
    vertex 62.23126639993125 10.093377659552898 220.61379161910804
  endloop
endfacet
facet normal 0.0 0.0 -1.0
  outer loop
    vertex 124.0312663999315 4.593377659552885 220.61379161910804
    vertex 62.23126639993125 7.093377659552858 220.61379161910804
    vertex 65.2312663999312 7.093377659552858 220.61379161910804
  endloop
endfacet
facet normal 0.0 0.0 -1.0
  outer loop
    vertex 124.0312663999315 4.593377659552885 220.61379161910804
    vertex 65.2312663999312 7.093377659552858 220.61379161910804
    vertex 66.73126639993131 8.593377659552882 220.61379161910804
  endloop
endfacet
facet normal 0.0 0.0 -1.0
  outer loop
    vertex 66.73126639993131 8.593377659552882 220.61379161910804
    vertex 65.2312663999312 7.093377659552858 220.61379161910804
    vertex 66.73126639993131 56.5933776595554 220.61379161910804
  endloop
endfacet
facet normal 0.0 0.0 -1.0
  outer loop
    vertex 124.0312663999315 4.593377659552885 220.61379161910804
    vertex 66.73126639993131 8.593377659552882 220.61379161910804
    vertex 118.53126639993154 7.093377659552858 220.61379161910804
  endloop
endfacet
facet normal 0.0 0.0 -1.0
  outer loop
    vertex 118.53126639993154 7.093377659552858 220.61379161910804
    vertex 66.73126639993131 8.593377659552882 220.61379161910804
    vertex 117.03126639993161 8.593377659552882 220.61379161910804
  endloop
endfacet
facet normal 0.0 0.0 -1.0
  outer loop
    vertex 118.53126639993154 7.093377659552858 220.61379161910804
    vertex 117.03126639993161 8.593377659552882 220.61379161910804
    vertex 118.53126639993154 58.09337765955542 220.61379161910804
  endloop
endfacet
facet normal 0.0 0.0 -1.0
  outer loop
    vertex 118.53126639993154 7.093377659552858 220.61379161910804
    vertex 118.53126639993154 58.09337765955542 220.61379161910804
    vertex 118.53126639993154 55.09337765955538 220.61379161910804
  endloop
endfacet
facet normal 0.0 0.0 -1.0
  outer loop
    vertex 118.53126639993154 7.093377659552858 220.61379161910804
    vertex 118.53126639993154 55.09337765955538 220.61379161910804
    vertex 118.53126639993154 10.093377659552898 220.61379161910804
  endloop
endfacet
facet normal 0.0 0.0 -1.0
  outer loop
    vertex 124.0312663999315 4.593377659552885 220.61379161910804
    vertex 118.53126639993154 7.093377659552858 220.61379161910804
    vertex 121.53126639993152 7.093377659552858 220.61379161910804
  endloop
endfacet
facet normal 0.0 0.0 -1.0
  outer loop
    vertex 124.0312663999315 4.593377659552885 220.61379161910804
    vertex 121.53126639993152 7.093377659552858 220.61379161910804
    vertex 124.0312663999315 60.593377659555415 220.61379161910804
  endloop
endfacet
facet normal 0.0 0.0 -1.0
  outer loop
    vertex 121.53126639993152 55.09337765955538 220.61379161910804
    vertex 118.53126639993154 10.093377659552898 220.61379161910804
    vertex 118.53126639993154 55.09337765955538 220.61379161910804
  endloop
endfacet
facet normal 0.0 0.0 -1.0
  outer loop
    vertex 118.53126639993154 10.093377659552898 220.61379161910804
    vertex 121.53126639993152 55.09337765955538 220.61379161910804
    vertex 121.53126639993152 10.093377659552898 220.61379161910804
  endloop
endfacet
facet normal 0.0 0.0 -1.0
  outer loop
    vertex 65.2312663999312 55.09337765955538 220.61379161910804
    vertex 62.23126639993125 10.093377659552898 220.61379161910804
    vertex 62.23126639993125 55.09337765955538 220.61379161910804
  endloop
endfacet
facet normal 0.0 0.0 -1.0
  outer loop
    vertex 62.23126639993125 10.093377659552898 220.61379161910804
    vertex 65.2312663999312 55.09337765955538 220.61379161910804
    vertex 65.2312663999312 10.093377659552898 220.61379161910804
  endloop
endfacet
facet normal 1.0 0.0 0.0
  outer loop
    vertex 59.73126639993128 60.593377659555415 195.61379161910804
    vertex 59.73126639993128 36.59337765955414 199.613791619108
    vertex 59.73126639993128 36.59337765955414 195.61379161910804
  endloop
endfacet
facet normal 1.0 0.0 0.0
  outer loop
    vertex 59.73126639993128 28.593377659554143 195.61379161910804
    vertex 59.73126639993128 4.593377659552885 220.61379161910804
    vertex 59.73126639993128 4.593377659552885 195.61379161910804
  endloop
endfacet
facet normal 1.0 0.0 0.0
  outer loop
    vertex 59.73126639993128 4.593377659552885 220.61379161910804
    vertex 59.73126639993128 28.593377659554143 195.61379161910804
    vertex 59.73126639993128 28.593377659554143 199.613791619108
  endloop
endfacet
facet normal 1.0 0.0 0.0
  outer loop
    vertex 59.73126639993128 4.593377659552885 220.61379161910804
    vertex 59.73126639993128 28.593377659554143 199.613791619108
    vertex 59.73126639993128 60.593377659555415 220.61379161910804
  endloop
endfacet
facet normal 1.0 0.0 0.0
  outer loop
    vertex 59.73126639993128 60.593377659555415 220.61379161910804
    vertex 59.73126639993128 28.593377659554143 199.613791619108
    vertex 59.73126639993128 36.59337765955414 199.613791619108
  endloop
endfacet
facet normal 1.0 0.0 0.0
  outer loop
    vertex 59.73126639993128 60.593377659555415 220.61379161910804
    vertex 59.73126639993128 36.59337765955414 199.613791619108
    vertex 59.73126639993128 60.593377659555415 195.61379161910804
  endloop
endfacet
facet normal 0.0 1.0 0.0
  outer loop
    vertex 59.73126639993128 4.593377659552885 220.61379161910804
    vertex 124.0312663999315 4.593377659552885 195.61379161910804
    vertex 59.73126639993128 4.593377659552885 195.61379161910804
  endloop
endfacet
facet normal 0.0 1.0 0.0
  outer loop
    vertex 124.0312663999315 4.593377659552885 195.61379161910804
    vertex 59.73126639993128 4.593377659552885 220.61379161910804
    vertex 124.0312663999315 4.593377659552885 220.61379161910804
  endloop
endfacet
facet normal -1.0 0.0 0.0
  outer loop
    vertex 124.0312663999315 60.593377659555415 220.61379161910804
    vertex 124.0312663999315 4.593377659552885 195.61379161910804
    vertex 124.0312663999315 4.593377659552885 220.61379161910804
  endloop
endfacet
facet normal -1.0 0.0 0.0
  outer loop
    vertex 124.0312663999315 4.593377659552885 195.61379161910804
    vertex 124.0312663999315 60.593377659555415 220.61379161910804
    vertex 124.0312663999315 28.593377659554143 199.613791619108
  endloop
endfacet
facet normal -1.0 0.0 0.0
  outer loop
    vertex 124.0312663999315 28.593377659554143 199.613791619108
    vertex 124.0312663999315 60.593377659555415 220.61379161910804
    vertex 124.0312663999315 36.59337765955414 199.613791619108
  endloop
endfacet
facet normal -1.0 0.0 0.0
  outer loop
    vertex 124.0312663999315 36.59337765955414 199.613791619108
    vertex 124.0312663999315 60.593377659555415 220.61379161910804
    vertex 124.0312663999315 36.59337765955414 195.61379161910804
  endloop
endfacet
facet normal -1.0 0.0 0.0
  outer loop
    vertex 124.0312663999315 36.59337765955414 195.61379161910804
    vertex 124.0312663999315 60.593377659555415 220.61379161910804
    vertex 124.0312663999315 60.593377659555415 195.61379161910804
  endloop
endfacet
facet normal -1.0 0.0 0.0
  outer loop
    vertex 124.0312663999315 28.593377659554143 195.61379161910804
    vertex 124.0312663999315 4.593377659552885 195.61379161910804
    vertex 124.0312663999315 28.593377659554143 199.613791619108
  endloop
endfacet
facet normal 0.0 -1.0 0.0
  outer loop
    vertex 59.73126639993128 36.59337765955414 199.613791619108
    vertex 56.63126639993151 36.59337765955414 195.61379161910804
    vertex 59.73126639993128 36.59337765955414 195.61379161910804
  endloop
endfacet
facet normal 0.0 -1.0 0.0
  outer loop
    vertex 56.63126639993151 36.59337765955414 195.61379161910804
    vertex 59.73126639993128 36.59337765955414 199.613791619108
    vertex 56.63126639993151 36.59337765955414 199.613791619108
  endloop
endfacet
facet normal 0.0 1.0 0.0
  outer loop
    vertex 56.63126639993151 28.593377659554143 199.613791619108
    vertex 59.73126639993128 28.593377659554143 195.61379161910804
    vertex 56.63126639993151 28.593377659554143 195.61379161910804
  endloop
endfacet
facet normal 0.0 1.0 0.0
  outer loop
    vertex 59.73126639993128 28.593377659554143 195.61379161910804
    vertex 56.63126639993151 28.593377659554143 199.613791619108
    vertex 59.73126639993128 28.593377659554143 199.613791619108
  endloop
endfacet
facet normal -1.1396437658325322e-31 6.506202416024268e-32 -1.0
  outer loop
    vertex 124.0312663999315 28.593377659554143 195.61379161910804
    vertex 126.8312663999315 19.793377659552885 195.61379161910804
    vertex 124.0312663999315 4.593377659552885 195.61379161910804
  endloop
endfacet
facet normal -1.1396437658325322e-31 6.506202416024268e-32 -1.0
  outer loop
    vertex 126.8312663999315 19.793377659552885 195.61379161910804
    vertex 124.0312663999315 28.593377659554143 195.61379161910804
    vertex 132.83126639993145 28.593377659554143 195.61379161910804
  endloop
endfacet
facet normal -1.1396437658325322e-31 6.506202416024268e-32 -1.0
  outer loop
    vertex 126.8312663999315 19.793377659552885 195.61379161910804
    vertex 132.83126639993145 28.593377659554143 195.61379161910804
    vertex 130.2312663999315 19.793377659552885 195.61379161910804
  endloop
endfacet
facet normal -1.1396437658325322e-31 6.506202416024268e-32 -1.0
  outer loop
    vertex 130.2312663999315 19.793377659552885 195.61379161910804
    vertex 132.83126639993145 28.593377659554143 195.61379161910804
    vertex 130.2312663999315 16.793377659552885 195.61379161910804
  endloop
endfacet
facet normal -1.1396437658325322e-31 6.506202416024268e-32 -1.0
  outer loop
    vertex 130.2312663999315 16.793377659552885 195.61379161910804
    vertex 132.83126639993145 28.593377659554143 195.61379161910804
    vertex 132.83126639993145 16.793377659552885 195.61379161910804
  endloop
endfacet
facet normal -1.1396437658325322e-31 6.506202416024268e-32 -1.0
  outer loop
    vertex 59.73126639993128 28.593377659554143 195.61379161910804
    vertex 56.63126639993151 4.593377659552886 195.61379161910804
    vertex 56.63126639993151 28.593377659554143 195.61379161910804
  endloop
endfacet
facet normal -1.1396437658325322e-31 6.506202416024268e-32 -1.0
  outer loop
    vertex 56.63126639993151 4.593377659552886 195.61379161910804
    vertex 59.73126639993128 28.593377659554143 195.61379161910804
    vertex 59.631266399931505 1.593377659552883 195.61379161910804
  endloop
endfacet
facet normal -1.1396437658325322e-31 6.506202416024268e-32 -1.0
  outer loop
    vertex 59.631266399931505 1.593377659552883 195.61379161910804
    vertex 59.73126639993128 28.593377659554143 195.61379161910804
    vertex 59.73126639993128 4.593377659552885 195.61379161910804
  endloop
endfacet
facet normal -1.1396437658325322e-31 6.506202416024268e-32 -1.0
  outer loop
    vertex 59.631266399931505 1.593377659552883 195.61379161910804
    vertex 59.73126639993128 4.593377659552885 195.61379161910804
    vertex 126.8312663999315 1.5933776595528846 195.61379161910804
  endloop
endfacet
facet normal -1.1396437658325322e-31 6.506202416024268e-32 -1.0
  outer loop
    vertex 126.8312663999315 1.5933776595528846 195.61379161910804
    vertex 59.73126639993128 4.593377659552885 195.61379161910804
    vertex 124.0312663999315 4.593377659552885 195.61379161910804
  endloop
endfacet
facet normal -1.1396437658325322e-31 6.506202416024268e-32 -1.0
  outer loop
    vertex 126.8312663999315 1.5933776595528846 195.61379161910804
    vertex 124.0312663999315 4.593377659552885 195.61379161910804
    vertex 126.8312663999315 19.793377659552885 195.61379161910804
  endloop
endfacet
facet normal 1.0 0.0 0.0
  outer loop
    vertex 126.63126639993149 63.59337765955541 195.61379161910804
    vertex 126.63126639993149 45.393377659555405 223.613791619108
    vertex 126.63126639993149 45.393377659555405 195.61379161910804
  endloop
endfacet
facet normal 1.0 0.0 0.0
  outer loop
    vertex 126.63126639993149 45.393377659555405 223.613791619108
    vertex 126.63126639993149 63.59337765955541 195.61379161910804
    vertex 126.63126639993149 63.59337765955541 223.613791619108
  endloop
endfacet
facet normal 0.0 1.0 0.0
  outer loop
    vertex 126.63126639993149 45.393377659555405 223.613791619108
    vertex 130.2312663999315 45.393377659555405 195.61379161910804
    vertex 126.63126639993149 45.393377659555405 195.61379161910804
  endloop
endfacet
facet normal 0.0 1.0 0.0
  outer loop
    vertex 130.2312663999315 45.393377659555405 195.61379161910804
    vertex 126.63126639993149 45.393377659555405 223.613791619108
    vertex 130.2312663999315 45.393377659555405 223.613791619108
  endloop
endfacet
facet normal 0.0 1.0 0.0
  outer loop
    vertex 130.2312663999315 48.393377659555405 223.613791619108
    vertex 132.83126639993145 48.393377659555405 195.61379161910804
    vertex 130.2312663999315 48.393377659555405 195.61379161910804
  endloop
endfacet
facet normal 0.0 1.0 0.0
  outer loop
    vertex 132.83126639993145 48.393377659555405 195.61379161910804
    vertex 130.2312663999315 48.393377659555405 223.613791619108
    vertex 132.83126639993145 48.393377659555405 223.613791619108
  endloop
endfacet
facet normal -1.0 0.0 0.0
  outer loop
    vertex 130.2312663999315 48.393377659555405 223.613791619108
    vertex 130.2312663999315 45.393377659555405 195.61379161910804
    vertex 130.2312663999315 45.393377659555405 223.613791619108
  endloop
endfacet
facet normal -1.0 0.0 0.0
  outer loop
    vertex 130.2312663999315 45.393377659555405 195.61379161910804
    vertex 130.2312663999315 48.393377659555405 223.613791619108
    vertex 130.2312663999315 48.393377659555405 195.61379161910804
  endloop
endfacet
facet normal 0.0 -1.0 0.0
  outer loop
    vertex 130.2312663999315 19.793377659552885 223.613791619108
    vertex 126.8312663999315 19.793377659552885 195.61379161910804
    vertex 130.2312663999315 19.793377659552885 195.61379161910804
  endloop
endfacet
facet normal 0.0 -1.0 0.0
  outer loop
    vertex 126.8312663999315 19.793377659552885 195.61379161910804
    vertex 130.2312663999315 19.793377659552885 223.613791619108
    vertex 126.8312663999315 19.793377659552885 223.613791619108
  endloop
endfacet
facet normal 0.0 -1.0 0.0
  outer loop
    vertex 132.83126639993145 16.793377659552885 223.613791619108
    vertex 130.2312663999315 16.793377659552885 195.61379161910804
    vertex 132.83126639993145 16.793377659552885 195.61379161910804
  endloop
endfacet
facet normal 0.0 -1.0 0.0
  outer loop
    vertex 130.2312663999315 16.793377659552885 195.61379161910804
    vertex 132.83126639993145 16.793377659552885 223.613791619108
    vertex 130.2312663999315 16.793377659552885 223.613791619108
  endloop
endfacet
facet normal -1.0 0.0 0.0
  outer loop
    vertex 130.2312663999315 19.793377659552885 223.613791619108
    vertex 130.2312663999315 16.793377659552885 195.61379161910804
    vertex 130.2312663999315 16.793377659552885 223.613791619108
  endloop
endfacet
facet normal -1.0 0.0 0.0
  outer loop
    vertex 130.2312663999315 16.793377659552885 195.61379161910804
    vertex 130.2312663999315 19.793377659552885 223.613791619108
    vertex 130.2312663999315 19.793377659552885 195.61379161910804
  endloop
endfacet
facet normal 1.0 0.0 0.0
  outer loop
    vertex 132.83126639993145 48.393377659555405 195.61379161910804
    vertex 132.83126639993145 36.59337765955414 199.613791619108
    vertex 132.83126639993145 36.59337765955414 195.61379161910804
  endloop
endfacet
facet normal 1.0 0.0 0.0
  outer loop
    vertex 132.83126639993145 28.593377659554143 195.61379161910804
    vertex 132.83126639993145 16.793377659552885 223.613791619108
    vertex 132.83126639993145 16.793377659552885 195.61379161910804
  endloop
endfacet
facet normal 1.0 0.0 0.0
  outer loop
    vertex 132.83126639993145 16.793377659552885 223.613791619108
    vertex 132.83126639993145 28.593377659554143 195.61379161910804
    vertex 132.83126639993145 28.593377659554143 199.613791619108
  endloop
endfacet
facet normal 1.0 0.0 0.0
  outer loop
    vertex 132.83126639993145 16.793377659552885 223.613791619108
    vertex 132.83126639993145 28.593377659554143 199.613791619108
    vertex 132.83126639993145 48.393377659555405 223.613791619108
  endloop
endfacet
facet normal 1.0 0.0 0.0
  outer loop
    vertex 132.83126639993145 48.393377659555405 223.613791619108
    vertex 132.83126639993145 28.593377659554143 199.613791619108
    vertex 132.83126639993145 36.59337765955414 199.613791619108
  endloop
endfacet
facet normal 1.0 0.0 0.0
  outer loop
    vertex 132.83126639993145 48.393377659555405 223.613791619108
    vertex 132.83126639993145 36.59337765955414 199.613791619108
    vertex 132.83126639993145 48.393377659555405 195.61379161910804
  endloop
endfacet
facet normal 0.0 -1.0 0.0
  outer loop
    vertex 132.83126639993145 36.59337765955414 199.613791619108
    vertex 124.0312663999315 36.59337765955414 195.61379161910804
    vertex 132.83126639993145 36.59337765955414 195.61379161910804
  endloop
endfacet
facet normal 0.0 -1.0 0.0
  outer loop
    vertex 124.0312663999315 36.59337765955414 195.61379161910804
    vertex 132.83126639993145 36.59337765955414 199.613791619108
    vertex 124.0312663999315 36.59337765955414 199.613791619108
  endloop
endfacet
facet normal 0.0 0.0 -1.0
  outer loop
    vertex 132.83126639993145 36.59337765955414 199.613791619108
    vertex 124.0312663999315 28.593377659554143 199.613791619108
    vertex 124.0312663999315 36.59337765955414 199.613791619108
  endloop
endfacet
facet normal 0.0 0.0 -1.0
  outer loop
    vertex 124.0312663999315 28.593377659554143 199.613791619108
    vertex 132.83126639993145 36.59337765955414 199.613791619108
    vertex 132.83126639993145 28.593377659554143 199.613791619108
  endloop
endfacet
facet normal 0.0 1.0 0.0
  outer loop
    vertex 124.0312663999315 28.593377659554143 199.613791619108
    vertex 132.83126639993145 28.593377659554143 195.61379161910804
    vertex 124.0312663999315 28.593377659554143 195.61379161910804
  endloop
endfacet
facet normal 0.0 1.0 0.0
  outer loop
    vertex 132.83126639993145 28.593377659554143 195.61379161910804
    vertex 124.0312663999315 28.593377659554143 199.613791619108
    vertex 132.83126639993145 28.593377659554143 199.613791619108
  endloop
endfacet
facet normal 0.0 0.0 -1.0
  outer loop
    vertex 59.631266399931505 63.59337765955541 195.61379161910804
    vertex 56.63126639993151 36.59337765955414 195.61379161910804
    vertex 56.63126639993151 60.593377659555415 195.61379161910804
  endloop
endfacet
facet normal 0.0 0.0 -1.0
  outer loop
    vertex 56.63126639993151 36.59337765955414 195.61379161910804
    vertex 59.631266399931505 63.59337765955541 195.61379161910804
    vertex 59.73126639993128 36.59337765955414 195.61379161910804
  endloop
endfacet
facet normal 0.0 0.0 -1.0
  outer loop
    vertex 59.73126639993128 36.59337765955414 195.61379161910804
    vertex 59.631266399931505 63.59337765955541 195.61379161910804
    vertex 59.73126639993128 63.59337765955541 195.61379161910804
  endloop
endfacet
facet normal 0.0 0.0 -1.0
  outer loop
    vertex 59.73126639993128 36.59337765955414 195.61379161910804
    vertex 59.73126639993128 63.59337765955541 195.61379161910804
    vertex 59.73126639993128 60.593377659555415 195.61379161910804
  endloop
endfacet
facet normal -2.465190328815662e-31 -1.8114693443261122e-31 -1.0
  outer loop
    vertex 132.83126639993145 48.393377659555405 195.61379161910804
    vertex 130.2312663999315 45.393377659555405 195.61379161910804
    vertex 130.2312663999315 48.393377659555405 195.61379161910804
  endloop
endfacet
facet normal -2.465190328815662e-31 -1.8114693443261122e-31 -1.0
  outer loop
    vertex 126.63126639993149 63.59337765955541 195.61379161910804
    vertex 124.0312663999315 60.593377659555415 195.61379161910804
    vertex 124.0312663999315 63.59337765955541 195.61379161910804
  endloop
endfacet
facet normal -2.465190328815662e-31 -1.8114693443261122e-31 -1.0
  outer loop
    vertex 124.0312663999315 60.593377659555415 195.61379161910804
    vertex 126.63126639993149 63.59337765955541 195.61379161910804
    vertex 124.0312663999315 36.59337765955414 195.61379161910804
  endloop
endfacet
facet normal -2.465190328815662e-31 -1.8114693443261122e-31 -1.0
  outer loop
    vertex 124.0312663999315 36.59337765955414 195.61379161910804
    vertex 126.63126639993149 63.59337765955541 195.61379161910804
    vertex 126.63126639993149 45.393377659555405 195.61379161910804
  endloop
endfacet
facet normal -2.465190328815662e-31 -1.8114693443261122e-31 -1.0
  outer loop
    vertex 124.0312663999315 36.59337765955414 195.61379161910804
    vertex 126.63126639993149 45.393377659555405 195.61379161910804
    vertex 132.83126639993145 36.59337765955414 195.61379161910804
  endloop
endfacet
facet normal -2.465190328815662e-31 -1.8114693443261122e-31 -1.0
  outer loop
    vertex 132.83126639993145 36.59337765955414 195.61379161910804
    vertex 126.63126639993149 45.393377659555405 195.61379161910804
    vertex 130.2312663999315 45.393377659555405 195.61379161910804
  endloop
endfacet
facet normal -2.465190328815662e-31 -1.8114693443261122e-31 -1.0
  outer loop
    vertex 132.83126639993145 36.59337765955414 195.61379161910804
    vertex 130.2312663999315 45.393377659555405 195.61379161910804
    vertex 132.83126639993145 48.393377659555405 195.61379161910804
  endloop
endfacet
facet normal 0.0 0.0 -1.0
  outer loop
    vertex 124.0312663999315 63.59337765955541 220.61379161910804
    vertex 59.73126639993128 60.593377659555415 220.61379161910804
    vertex 59.73126639993128 63.59337765955541 220.61379161910804
  endloop
endfacet
facet normal 0.0 0.0 -1.0
  outer loop
    vertex 59.73126639993128 60.593377659555415 220.61379161910804
    vertex 124.0312663999315 63.59337765955541 220.61379161910804
    vertex 124.0312663999315 60.593377659555415 220.61379161910804
  endloop
endfacet
facet normal -1.0 0.0 0.0
  outer loop
    vertex 124.0312663999315 63.59337765955541 220.61379161910804
    vertex 124.0312663999315 60.593377659555415 195.61379161910804
    vertex 124.0312663999315 60.593377659555415 220.61379161910804
  endloop
endfacet
facet normal -1.0 0.0 0.0
  outer loop
    vertex 124.0312663999315 60.593377659555415 195.61379161910804
    vertex 124.0312663999315 63.59337765955541 220.61379161910804
    vertex 124.0312663999315 63.59337765955541 195.61379161910804
  endloop
endfacet
facet normal 1.0 0.0 0.0
  outer loop
    vertex 59.73126639993128 63.59337765955541 195.61379161910804
    vertex 59.73126639993128 60.593377659555415 220.61379161910804
    vertex 59.73126639993128 60.593377659555415 195.61379161910804
  endloop
endfacet
facet normal 1.0 0.0 0.0
  outer loop
    vertex 59.73126639993128 60.593377659555415 220.61379161910804
    vertex 59.73126639993128 63.59337765955541 195.61379161910804
    vertex 59.73126639993128 63.59337765955541 220.61379161910804
  endloop
endfacet
facet normal 0.0 0.0 1.0
  outer loop
    vertex 132.83126639993145 16.793377659552885 223.613791619108
    vertex 130.2312663999315 19.793377659552885 223.613791619108
    vertex 130.2312663999315 16.793377659552885 223.613791619108
  endloop
endfacet
facet normal 0.0 0.0 1.0
  outer loop
    vertex 130.2312663999315 19.793377659552885 223.613791619108
    vertex 132.83126639993145 16.793377659552885 223.613791619108
    vertex 130.2312663999315 45.393377659555405 223.613791619108
  endloop
endfacet
facet normal 0.0 0.0 1.0
  outer loop
    vertex 130.2312663999315 45.393377659555405 223.613791619108
    vertex 132.83126639993145 16.793377659552885 223.613791619108
    vertex 130.2312663999315 48.393377659555405 223.613791619108
  endloop
endfacet
facet normal 0.0 0.0 1.0
  outer loop
    vertex 130.2312663999315 48.393377659555405 223.613791619108
    vertex 132.83126639993145 16.793377659552885 223.613791619108
    vertex 132.83126639993145 48.393377659555405 223.613791619108
  endloop
endfacet
facet normal 0.0 0.0 1.0
  outer loop
    vertex 59.631266399931505 1.593377659552883 223.613791619108
    vertex 56.63126639993151 60.593377659555415 223.613791619108
    vertex 56.63126639993151 4.593377659552886 223.613791619108
  endloop
endfacet
facet normal 0.0 0.0 1.0
  outer loop
    vertex 56.63126639993151 60.593377659555415 223.613791619108
    vertex 59.631266399931505 1.593377659552883 223.613791619108
    vertex 59.631266399931505 63.59337765955541 223.613791619108
  endloop
endfacet
facet normal 0.0 0.0 1.0
  outer loop
    vertex 59.631266399931505 63.59337765955541 223.613791619108
    vertex 59.631266399931505 1.593377659552883 223.613791619108
    vertex 62.23126639993125 7.093377659552858 223.613791619108
  endloop
endfacet
facet normal 0.0 0.0 1.0
  outer loop
    vertex 62.23126639993125 7.093377659552858 223.613791619108
    vertex 59.631266399931505 1.593377659552883 223.613791619108
    vertex 126.8312663999315 1.5933776595528846 223.613791619108
  endloop
endfacet
facet normal 0.0 0.0 1.0
  outer loop
    vertex 62.23126639993125 7.093377659552858 223.613791619108
    vertex 126.8312663999315 1.5933776595528846 223.613791619108
    vertex 65.2312663999312 7.093377659552858 223.613791619108
  endloop
endfacet
facet normal 0.0 0.0 1.0
  outer loop
    vertex 65.2312663999312 7.093377659552858 223.613791619108
    vertex 126.8312663999315 1.5933776595528846 223.613791619108
    vertex 66.73126639993131 8.593377659552882 223.613791619108
  endloop
endfacet
facet normal 0.0 0.0 1.0
  outer loop
    vertex 65.2312663999312 7.093377659552858 223.613791619108
    vertex 66.73126639993131 8.593377659552882 223.613791619108
    vertex 65.2312663999312 10.093377659552898 223.613791619108
  endloop
endfacet
facet normal 0.0 0.0 1.0
  outer loop
    vertex 65.2312663999312 10.093377659552898 223.613791619108
    vertex 66.73126639993131 8.593377659552882 223.613791619108
    vertex 65.2312663999312 55.09337765955538 223.613791619108
  endloop
endfacet
facet normal 0.0 0.0 1.0
  outer loop
    vertex 65.2312663999312 55.09337765955538 223.613791619108
    vertex 66.73126639993131 8.593377659552882 223.613791619108
    vertex 65.2312663999312 58.09337765955542 223.613791619108
  endloop
endfacet
facet normal 0.0 0.0 1.0
  outer loop
    vertex 66.73126639993131 8.593377659552882 223.613791619108
    vertex 126.8312663999315 1.5933776595528846 223.613791619108
    vertex 118.53126639993154 7.093377659552858 223.613791619108
  endloop
endfacet
facet normal 0.0 0.0 1.0
  outer loop
    vertex 66.73126639993131 8.593377659552882 223.613791619108
    vertex 118.53126639993154 7.093377659552858 223.613791619108
    vertex 117.03126639993161 8.593377659552882 223.613791619108
  endloop
endfacet
facet normal 0.0 0.0 1.0
  outer loop
    vertex 117.03126639993161 8.593377659552882 223.613791619108
    vertex 118.53126639993154 7.093377659552858 223.613791619108
    vertex 117.03126639993161 56.5933776595554 223.613791619108
  endloop
endfacet
facet normal 0.0 0.0 1.0
  outer loop
    vertex 118.53126639993154 7.093377659552858 223.613791619108
    vertex 126.8312663999315 1.5933776595528846 223.613791619108
    vertex 121.53126639993152 7.093377659552858 223.613791619108
  endloop
endfacet
facet normal 0.0 0.0 1.0
  outer loop
    vertex 121.53126639993152 7.093377659552858 223.613791619108
    vertex 126.8312663999315 1.5933776595528846 223.613791619108
    vertex 121.53126639993152 10.093377659552898 223.613791619108
  endloop
endfacet
facet normal 0.0 0.0 1.0
  outer loop
    vertex 121.53126639993152 10.093377659552898 223.613791619108
    vertex 126.8312663999315 1.5933776595528846 223.613791619108
    vertex 121.53126639993152 55.09337765955538 223.613791619108
  endloop
endfacet
facet normal 0.0 0.0 1.0
  outer loop
    vertex 121.53126639993152 55.09337765955538 223.613791619108
    vertex 126.8312663999315 1.5933776595528846 223.613791619108
    vertex 121.53126639993152 58.09337765955542 223.613791619108
  endloop
endfacet
facet normal 0.0 0.0 1.0
  outer loop
    vertex 121.53126639993152 58.09337765955542 223.613791619108
    vertex 126.8312663999315 1.5933776595528846 223.613791619108
    vertex 126.63126639993149 45.393377659555405 223.613791619108
  endloop
endfacet
facet normal 0.0 0.0 1.0
  outer loop
    vertex 126.63126639993149 45.393377659555405 223.613791619108
    vertex 126.8312663999315 1.5933776595528846 223.613791619108
    vertex 126.8312663999315 19.793377659552885 223.613791619108
  endloop
endfacet
facet normal 0.0 0.0 1.0
  outer loop
    vertex 126.63126639993149 45.393377659555405 223.613791619108
    vertex 126.8312663999315 19.793377659552885 223.613791619108
    vertex 130.2312663999315 45.393377659555405 223.613791619108
  endloop
endfacet
facet normal 0.0 0.0 1.0
  outer loop
    vertex 130.2312663999315 45.393377659555405 223.613791619108
    vertex 126.8312663999315 19.793377659552885 223.613791619108
    vertex 130.2312663999315 19.793377659552885 223.613791619108
  endloop
endfacet
facet normal 0.0 0.0 1.0
  outer loop
    vertex 59.631266399931505 63.59337765955541 223.613791619108
    vertex 62.23126639993125 58.09337765955542 223.613791619108
    vertex 126.63126639993149 63.59337765955541 223.613791619108
  endloop
endfacet
facet normal 0.0 0.0 1.0
  outer loop
    vertex 62.23126639993125 58.09337765955542 223.613791619108
    vertex 59.631266399931505 63.59337765955541 223.613791619108
    vertex 62.23126639993125 7.093377659552858 223.613791619108
  endloop
endfacet
facet normal 0.0 0.0 1.0
  outer loop
    vertex 62.23126639993125 58.09337765955542 223.613791619108
    vertex 62.23126639993125 7.093377659552858 223.613791619108
    vertex 62.23126639993125 10.093377659552898 223.613791619108
  endloop
endfacet
facet normal 0.0 0.0 1.0
  outer loop
    vertex 62.23126639993125 58.09337765955542 223.613791619108
    vertex 62.23126639993125 10.093377659552898 223.613791619108
    vertex 62.23126639993125 55.09337765955538 223.613791619108
  endloop
endfacet
facet normal 0.0 0.0 1.0
  outer loop
    vertex 126.63126639993149 63.59337765955541 223.613791619108
    vertex 62.23126639993125 58.09337765955542 223.613791619108
    vertex 65.2312663999312 58.09337765955542 223.613791619108
  endloop
endfacet
facet normal 0.0 0.0 1.0
  outer loop
    vertex 126.63126639993149 63.59337765955541 223.613791619108
    vertex 65.2312663999312 58.09337765955542 223.613791619108
    vertex 66.73126639993131 56.5933776595554 223.613791619108
  endloop
endfacet
facet normal 0.0 0.0 1.0
  outer loop
    vertex 66.73126639993131 56.5933776595554 223.613791619108
    vertex 65.2312663999312 58.09337765955542 223.613791619108
    vertex 66.73126639993131 8.593377659552882 223.613791619108
  endloop
endfacet
facet normal 0.0 0.0 1.0
  outer loop
    vertex 126.63126639993149 63.59337765955541 223.613791619108
    vertex 66.73126639993131 56.5933776595554 223.613791619108
    vertex 118.53126639993154 58.09337765955542 223.613791619108
  endloop
endfacet
facet normal 0.0 0.0 1.0
  outer loop
    vertex 118.53126639993154 58.09337765955542 223.613791619108
    vertex 66.73126639993131 56.5933776595554 223.613791619108
    vertex 117.03126639993161 56.5933776595554 223.613791619108
  endloop
endfacet
facet normal 0.0 0.0 1.0
  outer loop
    vertex 118.53126639993154 58.09337765955542 223.613791619108
    vertex 117.03126639993161 56.5933776595554 223.613791619108
    vertex 118.53126639993154 7.093377659552858 223.613791619108
  endloop
endfacet
facet normal 0.0 0.0 1.0
  outer loop
    vertex 118.53126639993154 58.09337765955542 223.613791619108
    vertex 118.53126639993154 7.093377659552858 223.613791619108
    vertex 118.53126639993154 10.093377659552898 223.613791619108
  endloop
endfacet
facet normal 0.0 0.0 1.0
  outer loop
    vertex 118.53126639993154 58.09337765955542 223.613791619108
    vertex 118.53126639993154 10.093377659552898 223.613791619108
    vertex 118.53126639993154 55.09337765955538 223.613791619108
  endloop
endfacet
facet normal 0.0 0.0 1.0
  outer loop
    vertex 126.63126639993149 63.59337765955541 223.613791619108
    vertex 118.53126639993154 58.09337765955542 223.613791619108
    vertex 121.53126639993152 58.09337765955542 223.613791619108
  endloop
endfacet
facet normal 0.0 0.0 1.0
  outer loop
    vertex 126.63126639993149 63.59337765955541 223.613791619108
    vertex 121.53126639993152 58.09337765955542 223.613791619108
    vertex 126.63126639993149 45.393377659555405 223.613791619108
  endloop
endfacet
facet normal 0.0 0.0 1.0
  outer loop
    vertex 121.53126639993152 10.093377659552898 223.613791619108
    vertex 118.53126639993154 55.09337765955538 223.613791619108
    vertex 118.53126639993154 10.093377659552898 223.613791619108
  endloop
endfacet
facet normal 0.0 0.0 1.0
  outer loop
    vertex 118.53126639993154 55.09337765955538 223.613791619108
    vertex 121.53126639993152 10.093377659552898 223.613791619108
    vertex 121.53126639993152 55.09337765955538 223.613791619108
  endloop
endfacet
facet normal 0.0 0.0 1.0
  outer loop
    vertex 65.2312663999312 10.093377659552898 223.613791619108
    vertex 62.23126639993125 55.09337765955538 223.613791619108
    vertex 62.23126639993125 10.093377659552898 223.613791619108
  endloop
endfacet
facet normal 0.0 0.0 1.0
  outer loop
    vertex 62.23126639993125 55.09337765955538 223.613791619108
    vertex 65.2312663999312 10.093377659552898 223.613791619108
    vertex 65.2312663999312 55.09337765955538 223.613791619108
  endloop
endfacet
facet normal -0.7071067811865486 -0.7071067811865466 0.0
  outer loop
    vertex 56.63126639993151 4.593377659552886 223.613791619108
    vertex 59.631266399931505 1.593377659552883 195.61379161910804
    vertex 59.631266399931505 1.593377659552883 223.613791619108
  endloop
endfacet
facet normal -0.7071067811865486 -0.7071067811865466 0.0
  outer loop
    vertex 59.631266399931505 1.593377659552883 195.61379161910804
    vertex 56.63126639993151 4.593377659552886 223.613791619108
    vertex 56.63126639993151 4.593377659552886 195.61379161910804
  endloop
endfacet
facet normal -1.0 0.0 0.0
  outer loop
    vertex 56.63126639993151 60.593377659555415 223.613791619108
    vertex 56.63126639993151 4.593377659552886 195.61379161910804
    vertex 56.63126639993151 4.593377659552886 223.613791619108
  endloop
endfacet
facet normal -1.0 0.0 0.0
  outer loop
    vertex 56.63126639993151 4.593377659552886 195.61379161910804
    vertex 56.63126639993151 60.593377659555415 223.613791619108
    vertex 56.63126639993151 28.593377659554143 199.613791619108
  endloop
endfacet
facet normal -1.0 0.0 0.0
  outer loop
    vertex 56.63126639993151 28.593377659554143 199.613791619108
    vertex 56.63126639993151 60.593377659555415 223.613791619108
    vertex 56.63126639993151 36.59337765955414 199.613791619108
  endloop
endfacet
facet normal -1.0 0.0 0.0
  outer loop
    vertex 56.63126639993151 36.59337765955414 199.613791619108
    vertex 56.63126639993151 60.593377659555415 223.613791619108
    vertex 56.63126639993151 36.59337765955414 195.61379161910804
  endloop
endfacet
facet normal -1.0 0.0 0.0
  outer loop
    vertex 56.63126639993151 36.59337765955414 195.61379161910804
    vertex 56.63126639993151 60.593377659555415 223.613791619108
    vertex 56.63126639993151 60.593377659555415 195.61379161910804
  endloop
endfacet
facet normal -1.0 0.0 0.0
  outer loop
    vertex 56.63126639993151 28.593377659554143 195.61379161910804
    vertex 56.63126639993151 4.593377659552886 195.61379161910804
    vertex 56.63126639993151 28.593377659554143 199.613791619108
  endloop
endfacet
facet normal -0.7071067811865476 0.7071067811865476 0.0
  outer loop
    vertex 59.631266399931505 63.59337765955541 223.613791619108
    vertex 56.63126639993151 60.593377659555415 195.61379161910804
    vertex 56.63126639993151 60.593377659555415 223.613791619108
  endloop
endfacet
facet normal -0.7071067811865476 0.7071067811865476 0.0
  outer loop
    vertex 56.63126639993151 60.593377659555415 195.61379161910804
    vertex 59.631266399931505 63.59337765955541 223.613791619108
    vertex 59.631266399931505 63.59337765955541 195.61379161910804
  endloop
endfacet
facet normal 0.0 0.0 -1.0
  outer loop
    vertex 59.73126639993128 36.59337765955414 199.613791619108
    vertex 56.63126639993151 28.593377659554143 199.613791619108
    vertex 56.63126639993151 36.59337765955414 199.613791619108
  endloop
endfacet
facet normal 0.0 0.0 -1.0
  outer loop
    vertex 56.63126639993151 28.593377659554143 199.613791619108
    vertex 59.73126639993128 36.59337765955414 199.613791619108
    vertex 59.73126639993128 28.593377659554143 199.613791619108
  endloop
endfacet
endsolid LIXIE_MODULAR_RELEASE_VERSION
