solid LIXIE_MODULAR_RELEASE_VERSION
facet normal 0.0 1.0 0.0
  outer loop
    vertex 279.63126639993203 63.59337765955541 223.613791619108
    vertex 288.6312663999321 63.59337765955541 195.61379161910804
    vertex 279.63126639993203 63.59337765955541 195.61379161910804
  endloop
endfacet
facet normal 0.0 1.0 0.0
  outer loop
    vertex 288.6312663999321 63.59337765955541 195.61379161910804
    vertex 279.63126639993203 63.59337765955541 223.613791619108
    vertex 288.6312663999321 63.59337765955541 220.61379161910804
  endloop
endfacet
facet normal 0.0 1.0 0.0
  outer loop
    vertex 288.6312663999321 63.59337765955541 220.61379161910804
    vertex 279.63126639993203 63.59337765955541 223.613791619108
    vertex 352.9312663999323 63.59337765955541 220.61379161910804
  endloop
endfacet
facet normal 0.0 1.0 0.0
  outer loop
    vertex 352.9312663999323 63.59337765955541 220.61379161910804
    vertex 279.63126639993203 63.59337765955541 223.613791619108
    vertex 352.9312663999323 63.59337765955541 223.613791619108
  endloop
endfacet
facet normal 2.4044734673839425e-17 -1.0 3.8054020636862115e-34
  outer loop
    vertex 352.9312663999323 1.5933776595528846 195.61379161910813
    vertex 279.63126639993203 1.5933776595528828 223.613791619108
    vertex 279.63126639993203 1.5933776595528828 195.61379161910804
  endloop
endfacet
facet normal 2.4044734673839425e-17 -1.0 3.8054020636862115e-34
  outer loop
    vertex 279.63126639993203 1.5933776595528828 223.613791619108
    vertex 352.9312663999323 1.5933776595528846 195.61379161910813
    vertex 352.9312663999323 1.5933776595528846 223.613791619108
  endloop
endfacet
facet normal -1.0 0.0 0.0
  outer loop
    vertex 350.4312663999323 58.09337765955542 223.613791619108
    vertex 350.4312663999323 55.09337765955538 220.61379161910804
    vertex 350.4312663999323 55.09337765955538 223.613791619108
  endloop
endfacet
facet normal -1.0 0.0 0.0
  outer loop
    vertex 350.4312663999323 55.09337765955538 220.61379161910804
    vertex 350.4312663999323 58.09337765955542 223.613791619108
    vertex 350.4312663999323 58.09337765955542 220.61379161910804
  endloop
endfacet
facet normal 1.0 0.0 0.0
  outer loop
    vertex 347.4312663999323 10.093377659552898 220.61379161910804
    vertex 347.4312663999323 7.093377659552858 223.613791619108
    vertex 347.4312663999323 7.093377659552858 220.61379161910804
  endloop
endfacet
facet normal 1.0 0.0 0.0
  outer loop
    vertex 347.4312663999323 7.093377659552858 223.613791619108
    vertex 347.4312663999323 10.093377659552898 220.61379161910804
    vertex 347.4312663999323 10.093377659552898 223.613791619108
  endloop
endfacet
facet normal 0.0 1.0 0.0
  outer loop
    vertex 347.4312663999323 7.093377659552858 223.613791619108
    vertex 350.4312663999323 7.093377659552858 220.61379161910804
    vertex 347.4312663999323 7.093377659552858 220.61379161910804
  endloop
endfacet
facet normal 0.0 1.0 0.0
  outer loop
    vertex 350.4312663999323 7.093377659552858 220.61379161910804
    vertex 347.4312663999323 7.093377659552858 223.613791619108
    vertex 350.4312663999323 7.093377659552858 223.613791619108
  endloop
endfacet
facet normal -1.0 0.0 0.0
  outer loop
    vertex 294.131266399932 58.09337765955542 223.613791619108
    vertex 294.131266399932 55.09337765955538 220.61379161910804
    vertex 294.131266399932 55.09337765955538 223.613791619108
  endloop
endfacet
facet normal -1.0 0.0 0.0
  outer loop
    vertex 294.131266399932 55.09337765955538 220.61379161910804
    vertex 294.131266399932 58.09337765955542 223.613791619108
    vertex 294.131266399932 58.09337765955542 220.61379161910804
  endloop
endfacet
facet normal 0.0 -1.0 0.0
  outer loop
    vertex 294.131266399932 58.09337765955542 223.613791619108
    vertex 291.13126639993203 58.09337765955542 220.61379161910804
    vertex 294.131266399932 58.09337765955542 220.61379161910804
  endloop
endfacet
facet normal 0.0 -1.0 0.0
  outer loop
    vertex 291.13126639993203 58.09337765955542 220.61379161910804
    vertex 294.131266399932 58.09337765955542 223.613791619108
    vertex 291.13126639993203 58.09337765955542 223.613791619108
  endloop
endfacet
facet normal 0.0 -1.0 0.0
  outer loop
    vertex 294.131266399932 10.093377659552898 223.613791619108
    vertex 291.13126639993203 10.093377659552898 220.61379161910804
    vertex 294.131266399932 10.093377659552898 220.61379161910804
  endloop
endfacet
facet normal 0.0 -1.0 0.0
  outer loop
    vertex 291.13126639993203 10.093377659552898 220.61379161910804
    vertex 294.131266399932 10.093377659552898 223.613791619108
    vertex 291.13126639993203 10.093377659552898 223.613791619108
  endloop
endfacet
facet normal -1.0 0.0 0.0
  outer loop
    vertex 350.4312663999323 10.093377659552898 223.613791619108
    vertex 350.4312663999323 7.093377659552858 220.61379161910804
    vertex 350.4312663999323 7.093377659552858 223.613791619108
  endloop
endfacet
facet normal -1.0 0.0 0.0
  outer loop
    vertex 350.4312663999323 7.093377659552858 220.61379161910804
    vertex 350.4312663999323 10.093377659552898 223.613791619108
    vertex 350.4312663999323 10.093377659552898 220.61379161910804
  endloop
endfacet
facet normal 0.0 1.0 0.0
  outer loop
    vertex 291.13126639993203 55.09337765955538 223.613791619108
    vertex 294.131266399932 55.09337765955538 220.61379161910804
    vertex 291.13126639993203 55.09337765955538 220.61379161910804
  endloop
endfacet
facet normal 0.0 1.0 0.0
  outer loop
    vertex 294.131266399932 55.09337765955538 220.61379161910804
    vertex 291.13126639993203 55.09337765955538 223.613791619108
    vertex 294.131266399932 55.09337765955538 223.613791619108
  endloop
endfacet
facet normal 0.0 1.0 0.0
  outer loop
    vertex 291.13126639993203 7.093377659552858 223.613791619108
    vertex 294.131266399932 7.093377659552858 220.61379161910804
    vertex 291.13126639993203 7.093377659552858 220.61379161910804
  endloop
endfacet
facet normal 0.0 1.0 0.0
  outer loop
    vertex 294.131266399932 7.093377659552858 220.61379161910804
    vertex 291.13126639993203 7.093377659552858 223.613791619108
    vertex 294.131266399932 7.093377659552858 223.613791619108
  endloop
endfacet
facet normal 0.0 -1.0 0.0
  outer loop
    vertex 345.9312663999324 56.5933776595554 223.613791619108
    vertex 295.6312663999321 56.5933776595554 220.61379161910804
    vertex 345.9312663999324 56.5933776595554 220.61379161910804
  endloop
endfacet
facet normal 0.0 -1.0 0.0
  outer loop
    vertex 295.6312663999321 56.5933776595554 220.61379161910804
    vertex 345.9312663999324 56.5933776595554 223.613791619108
    vertex 295.6312663999321 56.5933776595554 223.613791619108
  endloop
endfacet
facet normal -1.0 0.0 0.0
  outer loop
    vertex 294.131266399932 10.093377659552898 223.613791619108
    vertex 294.131266399932 7.093377659552858 220.61379161910804
    vertex 294.131266399932 7.093377659552858 223.613791619108
  endloop
endfacet
facet normal -1.0 0.0 0.0
  outer loop
    vertex 294.131266399932 7.093377659552858 220.61379161910804
    vertex 294.131266399932 10.093377659552898 223.613791619108
    vertex 294.131266399932 10.093377659552898 220.61379161910804
  endloop
endfacet
facet normal 1.0 0.0 0.0
  outer loop
    vertex 291.13126639993203 10.093377659552898 220.61379161910804
    vertex 291.13126639993203 7.093377659552858 223.613791619108
    vertex 291.13126639993203 7.093377659552858 220.61379161910804
  endloop
endfacet
facet normal 1.0 0.0 0.0
  outer loop
    vertex 291.13126639993203 7.093377659552858 223.613791619108
    vertex 291.13126639993203 10.093377659552898 220.61379161910804
    vertex 291.13126639993203 10.093377659552898 223.613791619108
  endloop
endfacet
facet normal 1.0 0.0 0.0
  outer loop
    vertex 347.4312663999323 58.09337765955542 220.61379161910804
    vertex 347.4312663999323 55.09337765955538 223.613791619108
    vertex 347.4312663999323 55.09337765955538 220.61379161910804
  endloop
endfacet
facet normal 1.0 0.0 0.0
  outer loop
    vertex 347.4312663999323 55.09337765955538 223.613791619108
    vertex 347.4312663999323 58.09337765955542 220.61379161910804
    vertex 347.4312663999323 58.09337765955542 223.613791619108
  endloop
endfacet
facet normal 0.0 -1.0 0.0
  outer loop
    vertex 350.4312663999323 10.093377659552898 223.613791619108
    vertex 347.4312663999323 10.093377659552898 220.61379161910804
    vertex 350.4312663999323 10.093377659552898 220.61379161910804
  endloop
endfacet
facet normal 0.0 -1.0 0.0
  outer loop
    vertex 347.4312663999323 10.093377659552898 220.61379161910804
    vertex 350.4312663999323 10.093377659552898 223.613791619108
    vertex 347.4312663999323 10.093377659552898 223.613791619108
  endloop
endfacet
facet normal 0.0 -1.0 0.0
  outer loop
    vertex 350.4312663999323 58.09337765955542 223.613791619108
    vertex 347.4312663999323 58.09337765955542 220.61379161910804
    vertex 350.4312663999323 58.09337765955542 220.61379161910804
  endloop
endfacet
facet normal 0.0 -1.0 0.0
  outer loop
    vertex 347.4312663999323 58.09337765955542 220.61379161910804
    vertex 350.4312663999323 58.09337765955542 223.613791619108
    vertex 347.4312663999323 58.09337765955542 223.613791619108
  endloop
endfacet
facet normal 1.0 0.0 0.0
  outer loop
    vertex 291.13126639993203 58.09337765955542 220.61379161910804
    vertex 291.13126639993203 55.09337765955538 223.613791619108
    vertex 291.13126639993203 55.09337765955538 220.61379161910804
  endloop
endfacet
facet normal 1.0 0.0 0.0
  outer loop
    vertex 291.13126639993203 55.09337765955538 223.613791619108
    vertex 291.13126639993203 58.09337765955542 220.61379161910804
    vertex 291.13126639993203 58.09337765955542 223.613791619108
  endloop
endfacet
facet normal 0.0 1.0 0.0
  outer loop
    vertex 295.6312663999321 8.593377659552882 223.613791619108
    vertex 345.9312663999324 8.593377659552882 220.61379161910804
    vertex 295.6312663999321 8.593377659552882 220.61379161910804
  endloop
endfacet
facet normal 0.0 1.0 0.0
  outer loop
    vertex 345.9312663999324 8.593377659552882 220.61379161910804
    vertex 295.6312663999321 8.593377659552882 223.613791619108
    vertex 345.9312663999324 8.593377659552882 223.613791619108
  endloop
endfacet
facet normal -1.0 -4.699944137579583e-16 0.0
  outer loop
    vertex 345.9312663999324 56.5933776595554 223.613791619108
    vertex 345.9312663999324 8.593377659552882 220.61379161910804
    vertex 345.9312663999324 8.593377659552882 223.613791619108
  endloop
endfacet
facet normal -1.0 -4.699944137579583e-16 0.0
  outer loop
    vertex 345.9312663999324 8.593377659552882 220.61379161910804
    vertex 345.9312663999324 56.5933776595554 223.613791619108
    vertex 345.9312663999324 56.5933776595554 220.61379161910804
  endloop
endfacet
facet normal 1.0 0.0 0.0
  outer loop
    vertex 295.6312663999321 56.5933776595554 220.61379161910804
    vertex 295.6312663999321 8.593377659552882 223.613791619108
    vertex 295.6312663999321 8.593377659552882 220.61379161910804
  endloop
endfacet
facet normal 1.0 0.0 0.0
  outer loop
    vertex 295.6312663999321 8.593377659552882 223.613791619108
    vertex 295.6312663999321 56.5933776595554 220.61379161910804
    vertex 295.6312663999321 56.5933776595554 223.613791619108
  endloop
endfacet
facet normal 0.0 0.0 -1.0
  outer loop
    vertex 288.6312663999321 60.593377659555415 220.61379161910804
    vertex 291.13126639993203 58.09337765955542 220.61379161910804
    vertex 288.6312663999321 4.593377659552885 220.61379161910804
  endloop
endfacet
facet normal 0.0 0.0 -1.0
  outer loop
    vertex 291.13126639993203 58.09337765955542 220.61379161910804
    vertex 288.6312663999321 60.593377659555415 220.61379161910804
    vertex 352.9312663999323 60.593377659555415 220.61379161910804
  endloop
endfacet
facet normal 0.0 0.0 -1.0
  outer loop
    vertex 291.13126639993203 58.09337765955542 220.61379161910804
    vertex 352.9312663999323 60.593377659555415 220.61379161910804
    vertex 294.131266399932 58.09337765955542 220.61379161910804
  endloop
endfacet
facet normal 0.0 0.0 -1.0
  outer loop
    vertex 294.131266399932 58.09337765955542 220.61379161910804
    vertex 352.9312663999323 60.593377659555415 220.61379161910804
    vertex 295.6312663999321 56.5933776595554 220.61379161910804
  endloop
endfacet
facet normal 0.0 0.0 -1.0
  outer loop
    vertex 294.131266399932 58.09337765955542 220.61379161910804
    vertex 295.6312663999321 56.5933776595554 220.61379161910804
    vertex 294.131266399932 55.09337765955538 220.61379161910804
  endloop
endfacet
facet normal 0.0 0.0 -1.0
  outer loop
    vertex 294.131266399932 55.09337765955538 220.61379161910804
    vertex 295.6312663999321 56.5933776595554 220.61379161910804
    vertex 294.131266399932 10.093377659552898 220.61379161910804
  endloop
endfacet
facet normal 0.0 0.0 -1.0
  outer loop
    vertex 294.131266399932 10.093377659552898 220.61379161910804
    vertex 295.6312663999321 56.5933776595554 220.61379161910804
    vertex 294.131266399932 7.093377659552858 220.61379161910804
  endloop
endfacet
facet normal 0.0 0.0 -1.0
  outer loop
    vertex 295.6312663999321 56.5933776595554 220.61379161910804
    vertex 352.9312663999323 60.593377659555415 220.61379161910804
    vertex 347.4312663999323 58.09337765955542 220.61379161910804
  endloop
endfacet
facet normal 0.0 0.0 -1.0
  outer loop
    vertex 295.6312663999321 56.5933776595554 220.61379161910804
    vertex 347.4312663999323 58.09337765955542 220.61379161910804
    vertex 345.9312663999324 56.5933776595554 220.61379161910804
  endloop
endfacet
facet normal 0.0 0.0 -1.0
  outer loop
    vertex 345.9312663999324 56.5933776595554 220.61379161910804
    vertex 347.4312663999323 58.09337765955542 220.61379161910804
    vertex 345.9312663999324 8.593377659552882 220.61379161910804
  endloop
endfacet
facet normal 0.0 0.0 -1.0
  outer loop
    vertex 347.4312663999323 58.09337765955542 220.61379161910804
    vertex 352.9312663999323 60.593377659555415 220.61379161910804
    vertex 350.4312663999323 58.09337765955542 220.61379161910804
  endloop
endfacet
facet normal 0.0 0.0 -1.0
  outer loop
    vertex 350.4312663999323 58.09337765955542 220.61379161910804
    vertex 352.9312663999323 60.593377659555415 220.61379161910804
    vertex 350.4312663999323 55.09337765955538 220.61379161910804
  endloop
endfacet
facet normal 0.0 0.0 -1.0
  outer loop
    vertex 350.4312663999323 55.09337765955538 220.61379161910804
    vertex 352.9312663999323 60.593377659555415 220.61379161910804
    vertex 350.4312663999323 10.093377659552898 220.61379161910804
  endloop
endfacet
facet normal 0.0 0.0 -1.0
  outer loop
    vertex 350.4312663999323 10.093377659552898 220.61379161910804
    vertex 352.9312663999323 60.593377659555415 220.61379161910804
    vertex 350.4312663999323 7.093377659552858 220.61379161910804
  endloop
endfacet
facet normal 0.0 0.0 -1.0
  outer loop
    vertex 288.6312663999321 4.593377659552885 220.61379161910804
    vertex 291.13126639993203 7.093377659552858 220.61379161910804
    vertex 352.9312663999323 4.593377659552885 220.61379161910804
  endloop
endfacet
facet normal 0.0 0.0 -1.0
  outer loop
    vertex 291.13126639993203 7.093377659552858 220.61379161910804
    vertex 288.6312663999321 4.593377659552885 220.61379161910804
    vertex 291.13126639993203 58.09337765955542 220.61379161910804
  endloop
endfacet
facet normal 0.0 0.0 -1.0
  outer loop
    vertex 291.13126639993203 7.093377659552858 220.61379161910804
    vertex 291.13126639993203 58.09337765955542 220.61379161910804
    vertex 291.13126639993203 55.09337765955538 220.61379161910804
  endloop
endfacet
facet normal 0.0 0.0 -1.0
  outer loop
    vertex 291.13126639993203 7.093377659552858 220.61379161910804
    vertex 291.13126639993203 55.09337765955538 220.61379161910804
    vertex 291.13126639993203 10.093377659552898 220.61379161910804
  endloop
endfacet
facet normal 0.0 0.0 -1.0
  outer loop
    vertex 352.9312663999323 4.593377659552885 220.61379161910804
    vertex 291.13126639993203 7.093377659552858 220.61379161910804
    vertex 294.131266399932 7.093377659552858 220.61379161910804
  endloop
endfacet
facet normal 0.0 0.0 -1.0
  outer loop
    vertex 352.9312663999323 4.593377659552885 220.61379161910804
    vertex 294.131266399932 7.093377659552858 220.61379161910804
    vertex 295.6312663999321 8.593377659552882 220.61379161910804
  endloop
endfacet
facet normal 0.0 0.0 -1.0
  outer loop
    vertex 295.6312663999321 8.593377659552882 220.61379161910804
    vertex 294.131266399932 7.093377659552858 220.61379161910804
    vertex 295.6312663999321 56.5933776595554 220.61379161910804
  endloop
endfacet
facet normal 0.0 0.0 -1.0
  outer loop
    vertex 352.9312663999323 4.593377659552885 220.61379161910804
    vertex 295.6312663999321 8.593377659552882 220.61379161910804
    vertex 347.4312663999323 7.093377659552858 220.61379161910804
  endloop
endfacet
facet normal 0.0 0.0 -1.0
  outer loop
    vertex 347.4312663999323 7.093377659552858 220.61379161910804
    vertex 295.6312663999321 8.593377659552882 220.61379161910804
    vertex 345.9312663999324 8.593377659552882 220.61379161910804
  endloop
endfacet
facet normal 0.0 0.0 -1.0
  outer loop
    vertex 347.4312663999323 7.093377659552858 220.61379161910804
    vertex 345.9312663999324 8.593377659552882 220.61379161910804
    vertex 347.4312663999323 58.09337765955542 220.61379161910804
  endloop
endfacet
facet normal 0.0 0.0 -1.0
  outer loop
    vertex 347.4312663999323 7.093377659552858 220.61379161910804
    vertex 347.4312663999323 58.09337765955542 220.61379161910804
    vertex 347.4312663999323 55.09337765955538 220.61379161910804
  endloop
endfacet
facet normal 0.0 0.0 -1.0
  outer loop
    vertex 347.4312663999323 7.093377659552858 220.61379161910804
    vertex 347.4312663999323 55.09337765955538 220.61379161910804
    vertex 347.4312663999323 10.093377659552898 220.61379161910804
  endloop
endfacet
facet normal 0.0 0.0 -1.0
  outer loop
    vertex 352.9312663999323 4.593377659552885 220.61379161910804
    vertex 347.4312663999323 7.093377659552858 220.61379161910804
    vertex 350.4312663999323 7.093377659552858 220.61379161910804
  endloop
endfacet
facet normal 0.0 0.0 -1.0
  outer loop
    vertex 352.9312663999323 4.593377659552885 220.61379161910804
    vertex 350.4312663999323 7.093377659552858 220.61379161910804
    vertex 352.9312663999323 60.593377659555415 220.61379161910804
  endloop
endfacet
facet normal 0.0 0.0 -1.0
  outer loop
    vertex 350.4312663999323 55.09337765955538 220.61379161910804
    vertex 347.4312663999323 10.093377659552898 220.61379161910804
    vertex 347.4312663999323 55.09337765955538 220.61379161910804
  endloop
endfacet
facet normal 0.0 0.0 -1.0
  outer loop
    vertex 347.4312663999323 10.093377659552898 220.61379161910804
    vertex 350.4312663999323 55.09337765955538 220.61379161910804
    vertex 350.4312663999323 10.093377659552898 220.61379161910804
  endloop
endfacet
facet normal 0.0 0.0 -1.0
  outer loop
    vertex 294.131266399932 55.09337765955538 220.61379161910804
    vertex 291.13126639993203 10.093377659552898 220.61379161910804
    vertex 291.13126639993203 55.09337765955538 220.61379161910804
  endloop
endfacet
facet normal 0.0 0.0 -1.0
  outer loop
    vertex 291.13126639993203 10.093377659552898 220.61379161910804
    vertex 294.131266399932 55.09337765955538 220.61379161910804
    vertex 294.131266399932 10.093377659552898 220.61379161910804
  endloop
endfacet
facet normal 1.0 0.0 0.0
  outer loop
    vertex 288.6312663999321 60.593377659555415 195.61379161910804
    vertex 288.6312663999321 36.59337765955414 199.613791619108
    vertex 288.6312663999321 36.59337765955414 195.61379161910804
  endloop
endfacet
facet normal 1.0 0.0 0.0
  outer loop
    vertex 288.6312663999321 28.593377659554143 195.61379161910804
    vertex 288.6312663999321 4.593377659552885 220.61379161910804
    vertex 288.6312663999321 4.593377659552885 195.61379161910804
  endloop
endfacet
facet normal 1.0 0.0 0.0
  outer loop
    vertex 288.6312663999321 4.593377659552885 220.61379161910804
    vertex 288.6312663999321 28.593377659554143 195.61379161910804
    vertex 288.6312663999321 28.593377659554143 199.613791619108
  endloop
endfacet
facet normal 1.0 0.0 0.0
  outer loop
    vertex 288.6312663999321 4.593377659552885 220.61379161910804
    vertex 288.6312663999321 28.593377659554143 199.613791619108
    vertex 288.6312663999321 60.593377659555415 220.61379161910804
  endloop
endfacet
facet normal 1.0 0.0 0.0
  outer loop
    vertex 288.6312663999321 60.593377659555415 220.61379161910804
    vertex 288.6312663999321 28.593377659554143 199.613791619108
    vertex 288.6312663999321 36.59337765955414 199.613791619108
  endloop
endfacet
facet normal 1.0 0.0 0.0
  outer loop
    vertex 288.6312663999321 60.593377659555415 220.61379161910804
    vertex 288.6312663999321 36.59337765955414 199.613791619108
    vertex 288.6312663999321 60.593377659555415 195.61379161910804
  endloop
endfacet
facet normal 0.0 1.0 0.0
  outer loop
    vertex 347.4312663999323 55.09337765955538 223.613791619108
    vertex 350.4312663999323 55.09337765955538 220.61379161910804
    vertex 347.4312663999323 55.09337765955538 220.61379161910804
  endloop
endfacet
facet normal 0.0 1.0 0.0
  outer loop
    vertex 350.4312663999323 55.09337765955538 220.61379161910804
    vertex 347.4312663999323 55.09337765955538 223.613791619108
    vertex 350.4312663999323 55.09337765955538 223.613791619108
  endloop
endfacet
facet normal 0.0 1.0 0.0
  outer loop
    vertex 288.6312663999321 4.593377659552885 220.61379161910804
    vertex 352.9312663999323 4.593377659552885 195.61379161910804
    vertex 288.6312663999321 4.593377659552885 195.61379161910804
  endloop
endfacet
facet normal 0.0 1.0 0.0
  outer loop
    vertex 352.9312663999323 4.593377659552885 195.61379161910804
    vertex 288.6312663999321 4.593377659552885 220.61379161910804
    vertex 352.9312663999323 4.593377659552885 220.61379161910804
  endloop
endfacet
facet normal -1.0 0.0 0.0
  outer loop
    vertex 352.9312663999323 60.593377659555415 220.61379161910804
    vertex 352.9312663999323 4.593377659552885 195.61379161910804
    vertex 352.9312663999323 4.593377659552885 220.61379161910804
  endloop
endfacet
facet normal -1.0 0.0 0.0
  outer loop
    vertex 352.9312663999323 4.593377659552885 195.61379161910804
    vertex 352.9312663999323 60.593377659555415 220.61379161910804
    vertex 352.9312663999323 28.593377659554143 199.613791619108
  endloop
endfacet
facet normal -1.0 0.0 0.0
  outer loop
    vertex 352.9312663999323 28.593377659554143 199.613791619108
    vertex 352.9312663999323 60.593377659555415 220.61379161910804
    vertex 352.9312663999323 36.59337765955414 199.613791619108
  endloop
endfacet
facet normal -1.0 0.0 0.0
  outer loop
    vertex 352.9312663999323 36.59337765955414 199.613791619108
    vertex 352.9312663999323 60.593377659555415 220.61379161910804
    vertex 352.9312663999323 36.59337765955414 195.61379161910804
  endloop
endfacet
facet normal -1.0 0.0 0.0
  outer loop
    vertex 352.9312663999323 36.59337765955414 195.61379161910804
    vertex 352.9312663999323 60.593377659555415 220.61379161910804
    vertex 352.9312663999323 60.593377659555415 195.61379161910804
  endloop
endfacet
facet normal -1.0 0.0 0.0
  outer loop
    vertex 352.9312663999323 28.593377659554143 195.61379161910804
    vertex 352.9312663999323 4.593377659552885 195.61379161910804
    vertex 352.9312663999323 28.593377659554143 199.613791619108
  endloop
endfacet
facet normal 0.0 -1.0 0.0
  outer loop
    vertex 282.6312663999321 45.5933776595554 221.61379161910804
    vertex 279.63126639993203 45.5933776595554 195.61379161910804
    vertex 282.6312663999321 45.5933776595554 195.61379161910804
  endloop
endfacet
facet normal 0.0 -1.0 0.0
  outer loop
    vertex 279.63126639993203 45.5933776595554 195.61379161910804
    vertex 282.6312663999321 45.5933776595554 221.61379161910804
    vertex 279.63126639993203 45.5933776595554 223.613791619108
  endloop
endfacet
facet normal 0.0 -1.0 0.0
  outer loop
    vertex 279.63126639993203 45.5933776595554 223.613791619108
    vertex 282.6312663999321 45.5933776595554 221.61379161910804
    vertex 281.63126639993203 45.5933776595554 223.613791619108
  endloop
endfacet
facet normal -9.772025948622078e-16 1.0 -1.2010311221770136e-17
  outer loop
    vertex 279.63126639993203 19.593377659552885 223.613791619108
    vertex 282.6312663999321 19.593377659552885 195.61379161910804
    vertex 279.63126639993203 19.593377659552885 195.61379161910804
  endloop
endfacet
facet normal -9.772025948622078e-16 1.0 -1.2010311221770136e-17
  outer loop
    vertex 282.6312663999321 19.593377659552885 195.61379161910804
    vertex 279.63126639993203 19.593377659552885 223.613791619108
    vertex 282.6312663999321 19.593377659552885 221.61379161910804
  endloop
endfacet
facet normal -9.772025948622078e-16 1.0 -1.2010311221770136e-17
  outer loop
    vertex 282.6312663999321 19.593377659552885 221.61379161910804
    vertex 279.63126639993203 19.593377659552885 223.613791619108
    vertex 281.63126639993203 19.593377659552885 223.613791619108
  endloop
endfacet
facet normal 3.5298181688836364e-16 -1.0036304051281866e-15 -1.0
  outer loop
    vertex 288.6312663999321 28.593377659554143 195.61379161910804
    vertex 285.63126639993203 16.593377659552885 195.61379161910804
    vertex 285.63126639993203 28.593377659554143 195.61379161910804
  endloop
endfacet
facet normal 3.5298181688836364e-16 -1.0036304051281866e-15 -1.0
  outer loop
    vertex 355.9312663999323 28.593377659554143 195.61379161910804
    vertex 352.9312663999323 4.593377659552885 195.61379161910804
    vertex 352.9312663999323 28.593377659554143 195.61379161910804
  endloop
endfacet
facet normal 3.5298181688836364e-16 -1.0036304051281866e-15 -1.0
  outer loop
    vertex 352.9312663999323 4.593377659552885 195.61379161910804
    vertex 355.9312663999323 28.593377659554143 195.61379161910804
    vertex 352.9312663999323 1.5933776595528846 195.61379161910813
  endloop
endfacet
facet normal 3.5298181688836364e-16 -1.0036304051281866e-15 -1.0
  outer loop
    vertex 352.9312663999323 1.5933776595528846 195.61379161910813
    vertex 355.9312663999323 28.593377659554143 195.61379161910804
    vertex 355.93126639993227 4.59337765955288 195.61379161910813
  endloop
endfacet
facet normal 3.5298181688836364e-16 -1.0036304051281866e-15 -1.0
  outer loop
    vertex 282.6312663999321 19.593377659552885 195.61379161910804
    vertex 279.63126639993203 1.5933776595528828 195.61379161910804
    vertex 279.63126639993203 19.593377659552885 195.61379161910804
  endloop
endfacet
facet normal 3.5298181688836364e-16 -1.0036304051281866e-15 -1.0
  outer loop
    vertex 279.63126639993203 1.5933776595528828 195.61379161910804
    vertex 282.6312663999321 19.593377659552885 195.61379161910804
    vertex 282.6312663999321 16.593377659552885 195.61379161910804
  endloop
endfacet
facet normal 3.5298181688836364e-16 -1.0036304051281866e-15 -1.0
  outer loop
    vertex 279.63126639993203 1.5933776595528828 195.61379161910804
    vertex 282.6312663999321 16.593377659552885 195.61379161910804
    vertex 288.6312663999321 4.593377659552885 195.61379161910804
  endloop
endfacet
facet normal 3.5298181688836364e-16 -1.0036304051281866e-15 -1.0
  outer loop
    vertex 279.63126639993203 1.5933776595528828 195.61379161910804
    vertex 288.6312663999321 4.593377659552885 195.61379161910804
    vertex 352.9312663999323 1.5933776595528846 195.61379161910813
  endloop
endfacet
facet normal 3.5298181688836364e-16 -1.0036304051281866e-15 -1.0
  outer loop
    vertex 288.6312663999321 4.593377659552885 195.61379161910804
    vertex 282.6312663999321 16.593377659552885 195.61379161910804
    vertex 285.63126639993203 16.593377659552885 195.61379161910804
  endloop
endfacet
facet normal 3.5298181688836364e-16 -1.0036304051281866e-15 -1.0
  outer loop
    vertex 288.6312663999321 4.593377659552885 195.61379161910804
    vertex 285.63126639993203 16.593377659552885 195.61379161910804
    vertex 288.6312663999321 28.593377659554143 195.61379161910804
  endloop
endfacet
facet normal 3.5298181688836364e-16 -1.0036304051281866e-15 -1.0
  outer loop
    vertex 352.9312663999323 1.5933776595528846 195.61379161910813
    vertex 288.6312663999321 4.593377659552885 195.61379161910804
    vertex 352.9312663999323 4.593377659552885 195.61379161910804
  endloop
endfacet
facet normal 0.0 -1.0 0.0
  outer loop
    vertex 355.9312663999323 36.59337765955414 199.613791619108
    vertex 352.9312663999323 36.59337765955414 195.61379161910804
    vertex 355.9312663999323 36.59337765955414 195.61379161910804
  endloop
endfacet
facet normal 0.0 -1.0 0.0
  outer loop
    vertex 352.9312663999323 36.59337765955414 195.61379161910804
    vertex 355.9312663999323 36.59337765955414 199.613791619108
    vertex 352.9312663999323 36.59337765955414 199.613791619108
  endloop
endfacet
facet normal 0.0 0.0 -1.0
  outer loop
    vertex 288.6312663999321 36.59337765955414 199.613791619108
    vertex 285.63126639993203 28.593377659554143 199.613791619108
    vertex 285.63126639993203 36.59337765955414 199.613791619108
  endloop
endfacet
facet normal 0.0 0.0 -1.0
  outer loop
    vertex 285.63126639993203 28.593377659554143 199.613791619108
    vertex 288.6312663999321 36.59337765955414 199.613791619108
    vertex 288.6312663999321 28.593377659554143 199.613791619108
  endloop
endfacet
facet normal 0.0 1.0 0.0
  outer loop
    vertex 352.9312663999323 28.593377659554143 199.613791619108
    vertex 355.9312663999323 28.593377659554143 195.61379161910804
    vertex 352.9312663999323 28.593377659554143 195.61379161910804
  endloop
endfacet
facet normal 0.0 1.0 0.0
  outer loop
    vertex 355.9312663999323 28.593377659554143 195.61379161910804
    vertex 352.9312663999323 28.593377659554143 199.613791619108
    vertex 355.9312663999323 28.593377659554143 199.613791619108
  endloop
endfacet
facet normal 1.232595164407831e-31 -2.8697152600186977e-31 -1.0
  outer loop
    vertex 288.6312663999321 63.59337765955541 195.61379161910804
    vertex 279.63126639993203 45.5933776595554 195.61379161910804
    vertex 279.63126639993203 63.59337765955541 195.61379161910804
  endloop
endfacet
facet normal 1.232595164407831e-31 -2.8697152600186977e-31 -1.0
  outer loop
    vertex 279.63126639993203 45.5933776595554 195.61379161910804
    vertex 288.6312663999321 63.59337765955541 195.61379161910804
    vertex 282.6312663999321 48.5933776595554 195.61379161910804
  endloop
endfacet
facet normal 1.232595164407831e-31 -2.8697152600186977e-31 -1.0
  outer loop
    vertex 282.6312663999321 48.5933776595554 195.61379161910804
    vertex 288.6312663999321 63.59337765955541 195.61379161910804
    vertex 285.63126639993203 48.5933776595554 195.61379161910804
  endloop
endfacet
facet normal 1.232595164407831e-31 -2.8697152600186977e-31 -1.0
  outer loop
    vertex 285.63126639993203 48.5933776595554 195.61379161910804
    vertex 288.6312663999321 63.59337765955541 195.61379161910804
    vertex 285.63126639993203 36.59337765955414 195.61379161910804
  endloop
endfacet
facet normal 1.232595164407831e-31 -2.8697152600186977e-31 -1.0
  outer loop
    vertex 285.63126639993203 36.59337765955414 195.61379161910804
    vertex 288.6312663999321 63.59337765955541 195.61379161910804
    vertex 288.6312663999321 36.59337765955414 195.61379161910804
  endloop
endfacet
facet normal 1.232595164407831e-31 -2.8697152600186977e-31 -1.0
  outer loop
    vertex 288.6312663999321 36.59337765955414 195.61379161910804
    vertex 288.6312663999321 63.59337765955541 195.61379161910804
    vertex 288.6312663999321 60.593377659555415 195.61379161910804
  endloop
endfacet
facet normal 1.232595164407831e-31 -2.8697152600186977e-31 -1.0
  outer loop
    vertex 282.6312663999321 45.5933776595554 195.61379161910804
    vertex 279.63126639993203 45.5933776595554 195.61379161910804
    vertex 282.6312663999321 48.5933776595554 195.61379161910804
  endloop
endfacet
facet normal -1.0 1.9974762584714266e-16 0.0
  outer loop
    vertex 279.63126639993203 63.59337765955541 223.613791619108
    vertex 279.63126639993203 45.5933776595554 195.61379161910804
    vertex 279.63126639993203 45.5933776595554 223.613791619108
  endloop
endfacet
facet normal -1.0 1.9974762584714266e-16 0.0
  outer loop
    vertex 279.63126639993203 45.5933776595554 195.61379161910804
    vertex 279.63126639993203 63.59337765955541 223.613791619108
    vertex 279.63126639993203 63.59337765955541 195.61379161910804
  endloop
endfacet
facet normal 7.36043995546451e-18 0.8944271909999153 0.4472135954999589
  outer loop
    vertex 281.63126639993203 15.593377659552887 223.613791619108
    vertex 285.63126639993203 16.593377659552885 221.61379161910804
    vertex 282.6312663999321 16.593377659552885 221.61379161910804
  endloop
endfacet
facet normal 7.36043995546451e-18 0.8944271909999153 0.4472135954999589
  outer loop
    vertex 285.63126639993203 16.593377659552885 221.61379161910804
    vertex 281.63126639993203 15.593377659552887 223.613791619108
    vertex 286.6312663999321 15.593377659552887 223.613791619108
  endloop
endfacet
facet normal 0.0 0.0 -1.0
  outer loop
    vertex 352.9312663999323 63.59337765955541 220.61379161910804
    vertex 288.6312663999321 60.593377659555415 220.61379161910804
    vertex 288.6312663999321 63.59337765955541 220.61379161910804
  endloop
endfacet
facet normal 0.0 0.0 -1.0
  outer loop
    vertex 288.6312663999321 60.593377659555415 220.61379161910804
    vertex 352.9312663999323 63.59337765955541 220.61379161910804
    vertex 352.9312663999323 60.593377659555415 220.61379161910804
  endloop
endfacet
facet normal -1.0 0.0 0.0
  outer loop
    vertex 352.9312663999323 63.59337765955541 220.61379161910804
    vertex 352.9312663999323 60.593377659555415 195.61379161910804
    vertex 352.9312663999323 60.593377659555415 220.61379161910804
  endloop
endfacet
facet normal -1.0 0.0 0.0
  outer loop
    vertex 352.9312663999323 60.593377659555415 195.61379161910804
    vertex 352.9312663999323 63.59337765955541 220.61379161910804
    vertex 352.9312663999323 63.59337765955541 195.61379161910804
  endloop
endfacet
facet normal -0.8944271909999156 1.9285703222754643e-17 0.4472135954999583
  outer loop
    vertex 286.6312663999321 49.593377659555394 223.613791619108
    vertex 285.63126639993203 16.593377659552885 221.61379161910804
    vertex 286.6312663999321 15.593377659552887 223.613791619108
  endloop
endfacet
facet normal -0.8944271909999156 1.9285703222754643e-17 0.4472135954999583
  outer loop
    vertex 285.63126639993203 16.593377659552885 221.61379161910804
    vertex 286.6312663999321 49.593377659555394 223.613791619108
    vertex 285.63126639993203 48.5933776595554 221.61379161910804
  endloop
endfacet
facet normal 1.0 8.2249022407647e-16 -6.77876558304783e-17
  outer loop
    vertex 282.6312663999321 19.593377659552885 195.61379161910804
    vertex 282.6312663999321 16.593377659552885 221.61379161910804
    vertex 282.6312663999321 16.593377659552885 195.61379161910804
  endloop
endfacet
facet normal 1.0 8.2249022407647e-16 -6.77876558304783e-17
  outer loop
    vertex 282.6312663999321 16.593377659552885 221.61379161910804
    vertex 282.6312663999321 19.593377659552885 195.61379161910804
    vertex 282.6312663999321 19.593377659552885 221.61379161910804
  endloop
endfacet
facet normal 0.0 1.0 0.0
  outer loop
    vertex 285.63126639993203 28.593377659554143 199.613791619108
    vertex 288.6312663999321 28.593377659554143 195.61379161910804
    vertex 285.63126639993203 28.593377659554143 195.61379161910804
  endloop
endfacet
facet normal 0.0 1.0 0.0
  outer loop
    vertex 288.6312663999321 28.593377659554143 195.61379161910804
    vertex 285.63126639993203 28.593377659554143 199.613791619108
    vertex 288.6312663999321 28.593377659554143 199.613791619108
  endloop
endfacet
facet normal 0.8944271909999151 6.432952296758665e-16 0.4472135954999594
  outer loop
    vertex 282.6312663999321 16.593377659552885 221.61379161910804
    vertex 281.63126639993203 19.593377659552885 223.613791619108
    vertex 281.63126639993203 15.593377659552887 223.613791619108
  endloop
endfacet
facet normal 0.8944271909999151 6.432952296758665e-16 0.4472135954999594
  outer loop
    vertex 281.63126639993203 19.593377659552885 223.613791619108
    vertex 282.6312663999321 16.593377659552885 221.61379161910804
    vertex 282.6312663999321 19.593377659552885 221.61379161910804
  endloop
endfacet
facet normal 1.0 0.0 0.0
  outer loop
    vertex 282.6312663999321 48.5933776595554 195.61379161910804
    vertex 282.6312663999321 45.5933776595554 221.61379161910804
    vertex 282.6312663999321 45.5933776595554 195.61379161910804
  endloop
endfacet
facet normal 1.0 0.0 0.0
  outer loop
    vertex 282.6312663999321 45.5933776595554 221.61379161910804
    vertex 282.6312663999321 48.5933776595554 195.61379161910804
    vertex 282.6312663999321 48.5933776595554 221.61379161910804
  endloop
endfacet
facet normal 0.0 0.0 1.0
  outer loop
    vertex 279.63126639993203 1.5933776595528828 223.613791619108
    vertex 281.63126639993203 15.593377659552887 223.613791619108
    vertex 279.63126639993203 19.593377659552885 223.613791619108
  endloop
endfacet
facet normal 0.0 0.0 1.0
  outer loop
    vertex 281.63126639993203 15.593377659552887 223.613791619108
    vertex 279.63126639993203 1.5933776595528828 223.613791619108
    vertex 291.13126639993203 7.093377659552858 223.613791619108
  endloop
endfacet
facet normal 0.0 0.0 1.0
  outer loop
    vertex 291.13126639993203 7.093377659552858 223.613791619108
    vertex 279.63126639993203 1.5933776595528828 223.613791619108
    vertex 352.9312663999323 1.5933776595528846 223.613791619108
  endloop
endfacet
facet normal 0.0 0.0 1.0
  outer loop
    vertex 281.63126639993203 15.593377659552887 223.613791619108
    vertex 291.13126639993203 7.093377659552858 223.613791619108
    vertex 286.6312663999321 15.593377659552887 223.613791619108
  endloop
endfacet
facet normal 0.0 0.0 1.0
  outer loop
    vertex 286.6312663999321 15.593377659552887 223.613791619108
    vertex 291.13126639993203 7.093377659552858 223.613791619108
    vertex 286.6312663999321 49.593377659555394 223.613791619108
  endloop
endfacet
facet normal 0.0 0.0 1.0
  outer loop
    vertex 291.13126639993203 7.093377659552858 223.613791619108
    vertex 352.9312663999323 1.5933776595528846 223.613791619108
    vertex 294.131266399932 7.093377659552858 223.613791619108
  endloop
endfacet
facet normal 0.0 0.0 1.0
  outer loop
    vertex 294.131266399932 7.093377659552858 223.613791619108
    vertex 352.9312663999323 1.5933776595528846 223.613791619108
    vertex 295.6312663999321 8.593377659552882 223.613791619108
  endloop
endfacet
facet normal 0.0 0.0 1.0
  outer loop
    vertex 294.131266399932 7.093377659552858 223.613791619108
    vertex 295.6312663999321 8.593377659552882 223.613791619108
    vertex 294.131266399932 10.093377659552898 223.613791619108
  endloop
endfacet
facet normal 0.0 0.0 1.0
  outer loop
    vertex 294.131266399932 10.093377659552898 223.613791619108
    vertex 295.6312663999321 8.593377659552882 223.613791619108
    vertex 294.131266399932 55.09337765955538 223.613791619108
  endloop
endfacet
facet normal 0.0 0.0 1.0
  outer loop
    vertex 294.131266399932 55.09337765955538 223.613791619108
    vertex 295.6312663999321 8.593377659552882 223.613791619108
    vertex 294.131266399932 58.09337765955542 223.613791619108
  endloop
endfacet
facet normal 0.0 0.0 1.0
  outer loop
    vertex 295.6312663999321 8.593377659552882 223.613791619108
    vertex 352.9312663999323 1.5933776595528846 223.613791619108
    vertex 347.4312663999323 7.093377659552858 223.613791619108
  endloop
endfacet
facet normal 0.0 0.0 1.0
  outer loop
    vertex 295.6312663999321 8.593377659552882 223.613791619108
    vertex 347.4312663999323 7.093377659552858 223.613791619108
    vertex 345.9312663999324 8.593377659552882 223.613791619108
  endloop
endfacet
facet normal 0.0 0.0 1.0
  outer loop
    vertex 345.9312663999324 8.593377659552882 223.613791619108
    vertex 347.4312663999323 7.093377659552858 223.613791619108
    vertex 345.9312663999324 56.5933776595554 223.613791619108
  endloop
endfacet
facet normal 0.0 0.0 1.0
  outer loop
    vertex 347.4312663999323 7.093377659552858 223.613791619108
    vertex 352.9312663999323 1.5933776595528846 223.613791619108
    vertex 350.4312663999323 7.093377659552858 223.613791619108
  endloop
endfacet
facet normal 0.0 0.0 1.0
  outer loop
    vertex 350.4312663999323 7.093377659552858 223.613791619108
    vertex 352.9312663999323 1.5933776595528846 223.613791619108
    vertex 350.4312663999323 10.093377659552898 223.613791619108
  endloop
endfacet
facet normal 0.0 0.0 1.0
  outer loop
    vertex 350.4312663999323 10.093377659552898 223.613791619108
    vertex 352.9312663999323 1.5933776595528846 223.613791619108
    vertex 350.4312663999323 55.09337765955538 223.613791619108
  endloop
endfacet
facet normal 0.0 0.0 1.0
  outer loop
    vertex 350.4312663999323 55.09337765955538 223.613791619108
    vertex 352.9312663999323 1.5933776595528846 223.613791619108
    vertex 350.4312663999323 58.09337765955542 223.613791619108
  endloop
endfacet
facet normal 0.0 0.0 1.0
  outer loop
    vertex 281.63126639993203 45.5933776595554 223.613791619108
    vertex 279.63126639993203 63.59337765955541 223.613791619108
    vertex 279.63126639993203 45.5933776595554 223.613791619108
  endloop
endfacet
facet normal 0.0 0.0 1.0
  outer loop
    vertex 279.63126639993203 63.59337765955541 223.613791619108
    vertex 281.63126639993203 45.5933776595554 223.613791619108
    vertex 281.63126639993203 49.593377659555394 223.613791619108
  endloop
endfacet
facet normal 0.0 0.0 1.0
  outer loop
    vertex 279.63126639993203 63.59337765955541 223.613791619108
    vertex 281.63126639993203 49.593377659555394 223.613791619108
    vertex 291.13126639993203 58.09337765955542 223.613791619108
  endloop
endfacet
facet normal 0.0 0.0 1.0
  outer loop
    vertex 279.63126639993203 63.59337765955541 223.613791619108
    vertex 291.13126639993203 58.09337765955542 223.613791619108
    vertex 352.9312663999323 63.59337765955541 223.613791619108
  endloop
endfacet
facet normal 0.0 0.0 1.0
  outer loop
    vertex 291.13126639993203 58.09337765955542 223.613791619108
    vertex 281.63126639993203 49.593377659555394 223.613791619108
    vertex 286.6312663999321 49.593377659555394 223.613791619108
  endloop
endfacet
facet normal 0.0 0.0 1.0
  outer loop
    vertex 291.13126639993203 58.09337765955542 223.613791619108
    vertex 286.6312663999321 49.593377659555394 223.613791619108
    vertex 291.13126639993203 7.093377659552858 223.613791619108
  endloop
endfacet
facet normal 0.0 0.0 1.0
  outer loop
    vertex 291.13126639993203 58.09337765955542 223.613791619108
    vertex 291.13126639993203 7.093377659552858 223.613791619108
    vertex 291.13126639993203 10.093377659552898 223.613791619108
  endloop
endfacet
facet normal 0.0 0.0 1.0
  outer loop
    vertex 291.13126639993203 58.09337765955542 223.613791619108
    vertex 291.13126639993203 10.093377659552898 223.613791619108
    vertex 291.13126639993203 55.09337765955538 223.613791619108
  endloop
endfacet
facet normal 0.0 0.0 1.0
  outer loop
    vertex 352.9312663999323 63.59337765955541 223.613791619108
    vertex 291.13126639993203 58.09337765955542 223.613791619108
    vertex 294.131266399932 58.09337765955542 223.613791619108
  endloop
endfacet
facet normal 0.0 0.0 1.0
  outer loop
    vertex 352.9312663999323 63.59337765955541 223.613791619108
    vertex 294.131266399932 58.09337765955542 223.613791619108
    vertex 295.6312663999321 56.5933776595554 223.613791619108
  endloop
endfacet
facet normal 0.0 0.0 1.0
  outer loop
    vertex 295.6312663999321 56.5933776595554 223.613791619108
    vertex 294.131266399932 58.09337765955542 223.613791619108
    vertex 295.6312663999321 8.593377659552882 223.613791619108
  endloop
endfacet
facet normal 0.0 0.0 1.0
  outer loop
    vertex 352.9312663999323 63.59337765955541 223.613791619108
    vertex 295.6312663999321 56.5933776595554 223.613791619108
    vertex 347.4312663999323 58.09337765955542 223.613791619108
  endloop
endfacet
facet normal 0.0 0.0 1.0
  outer loop
    vertex 347.4312663999323 58.09337765955542 223.613791619108
    vertex 295.6312663999321 56.5933776595554 223.613791619108
    vertex 345.9312663999324 56.5933776595554 223.613791619108
  endloop
endfacet
facet normal 0.0 0.0 1.0
  outer loop
    vertex 347.4312663999323 58.09337765955542 223.613791619108
    vertex 345.9312663999324 56.5933776595554 223.613791619108
    vertex 347.4312663999323 7.093377659552858 223.613791619108
  endloop
endfacet
facet normal 0.0 0.0 1.0
  outer loop
    vertex 347.4312663999323 58.09337765955542 223.613791619108
    vertex 347.4312663999323 7.093377659552858 223.613791619108
    vertex 347.4312663999323 10.093377659552898 223.613791619108
  endloop
endfacet
facet normal 0.0 0.0 1.0
  outer loop
    vertex 347.4312663999323 58.09337765955542 223.613791619108
    vertex 347.4312663999323 10.093377659552898 223.613791619108
    vertex 347.4312663999323 55.09337765955538 223.613791619108
  endloop
endfacet
facet normal 0.0 0.0 1.0
  outer loop
    vertex 352.9312663999323 63.59337765955541 223.613791619108
    vertex 347.4312663999323 58.09337765955542 223.613791619108
    vertex 350.4312663999323 58.09337765955542 223.613791619108
  endloop
endfacet
facet normal 0.0 0.0 1.0
  outer loop
    vertex 352.9312663999323 63.59337765955541 223.613791619108
    vertex 350.4312663999323 58.09337765955542 223.613791619108
    vertex 352.9312663999323 1.5933776595528846 223.613791619108
  endloop
endfacet
facet normal 0.0 0.0 1.0
  outer loop
    vertex 352.9312663999323 63.59337765955541 223.613791619108
    vertex 352.9312663999323 1.5933776595528846 223.613791619108
    vertex 355.93126639993227 4.59337765955288 223.613791619108
  endloop
endfacet
facet normal 0.0 0.0 1.0
  outer loop
    vertex 352.9312663999323 63.59337765955541 223.613791619108
    vertex 355.93126639993227 4.59337765955288 223.613791619108
    vertex 355.9312663999323 60.593377659555415 223.613791619108
  endloop
endfacet
facet normal 0.0 0.0 1.0
  outer loop
    vertex 350.4312663999323 10.093377659552898 223.613791619108
    vertex 347.4312663999323 55.09337765955538 223.613791619108
    vertex 347.4312663999323 10.093377659552898 223.613791619108
  endloop
endfacet
facet normal 0.0 0.0 1.0
  outer loop
    vertex 347.4312663999323 55.09337765955538 223.613791619108
    vertex 350.4312663999323 10.093377659552898 223.613791619108
    vertex 350.4312663999323 55.09337765955538 223.613791619108
  endloop
endfacet
facet normal 0.0 0.0 1.0
  outer loop
    vertex 294.131266399932 10.093377659552898 223.613791619108
    vertex 291.13126639993203 55.09337765955538 223.613791619108
    vertex 291.13126639993203 10.093377659552898 223.613791619108
  endloop
endfacet
facet normal 0.0 0.0 1.0
  outer loop
    vertex 291.13126639993203 55.09337765955538 223.613791619108
    vertex 294.131266399932 10.093377659552898 223.613791619108
    vertex 294.131266399932 55.09337765955538 223.613791619108
  endloop
endfacet
facet normal 0.0 0.0 1.0
  outer loop
    vertex 281.63126639993203 19.593377659552885 223.613791619108
    vertex 279.63126639993203 19.593377659552885 223.613791619108
    vertex 281.63126639993203 15.593377659552887 223.613791619108
  endloop
endfacet
facet normal 0.8944271909999159 0.0 0.44721359549995826
  outer loop
    vertex 282.6312663999321 48.5933776595554 221.61379161910804
    vertex 281.63126639993203 45.5933776595554 223.613791619108
    vertex 282.6312663999321 45.5933776595554 221.61379161910804
  endloop
endfacet
facet normal 0.8944271909999159 0.0 0.44721359549995826
  outer loop
    vertex 281.63126639993203 45.5933776595554 223.613791619108
    vertex 282.6312663999321 48.5933776595554 221.61379161910804
    vertex 281.63126639993203 49.593377659555394 223.613791619108
  endloop
endfacet
facet normal 1.0 0.0 0.0
  outer loop
    vertex 288.6312663999321 63.59337765955541 195.61379161910804
    vertex 288.6312663999321 60.593377659555415 220.61379161910804
    vertex 288.6312663999321 60.593377659555415 195.61379161910804
  endloop
endfacet
facet normal 1.0 0.0 0.0
  outer loop
    vertex 288.6312663999321 60.593377659555415 220.61379161910804
    vertex 288.6312663999321 63.59337765955541 195.61379161910804
    vertex 288.6312663999321 63.59337765955541 220.61379161910804
  endloop
endfacet
facet normal 0.0 -0.8944271909999161 0.44721359549995804
  outer loop
    vertex 286.6312663999321 49.593377659555394 223.613791619108
    vertex 282.6312663999321 48.5933776595554 221.61379161910804
    vertex 285.63126639993203 48.5933776595554 221.61379161910804
  endloop
endfacet
facet normal 0.0 -0.8944271909999161 0.44721359549995804
  outer loop
    vertex 282.6312663999321 48.5933776595554 221.61379161910804
    vertex 286.6312663999321 49.593377659555394 223.613791619108
    vertex 281.63126639993203 49.593377659555394 223.613791619108
  endloop
endfacet
facet normal 0.0 -1.0 0.0
  outer loop
    vertex 285.63126639993203 48.5933776595554 221.61379161910804
    vertex 282.6312663999321 48.5933776595554 195.61379161910804
    vertex 285.63126639993203 48.5933776595554 195.61379161910804
  endloop
endfacet
facet normal 0.0 -1.0 0.0
  outer loop
    vertex 282.6312663999321 48.5933776595554 195.61379161910804
    vertex 285.63126639993203 48.5933776595554 221.61379161910804
    vertex 282.6312663999321 48.5933776595554 221.61379161910804
  endloop
endfacet
facet normal -1.0 -2.819966482547897e-16 0.0
  outer loop
    vertex 279.63126639993203 19.593377659552885 223.613791619108
    vertex 279.63126639993203 1.5933776595528828 195.61379161910804
    vertex 279.63126639993203 1.5933776595528828 223.613791619108
  endloop
endfacet
facet normal -1.0 -2.819966482547897e-16 0.0
  outer loop
    vertex 279.63126639993203 1.5933776595528828 195.61379161910804
    vertex 279.63126639993203 19.593377659552885 223.613791619108
    vertex 279.63126639993203 19.593377659552885 195.61379161910804
  endloop
endfacet
facet normal 0.0 -1.0 0.0
  outer loop
    vertex 288.6312663999321 36.59337765955414 199.613791619108
    vertex 285.63126639993203 36.59337765955414 195.61379161910804
    vertex 288.6312663999321 36.59337765955414 195.61379161910804
  endloop
endfacet
facet normal 0.0 -1.0 0.0
  outer loop
    vertex 285.63126639993203 36.59337765955414 195.61379161910804
    vertex 288.6312663999321 36.59337765955414 199.613791619108
    vertex 285.63126639993203 36.59337765955414 199.613791619108
  endloop
endfacet
facet normal -1.0 2.0735047665791926e-17 6.113953026937358e-17
  outer loop
    vertex 285.63126639993203 48.5933776595554 221.61379161910804
    vertex 285.63126639993203 16.593377659552885 195.61379161910804
    vertex 285.63126639993203 16.593377659552885 221.61379161910804
  endloop
endfacet
facet normal -1.0 2.0735047665791926e-17 6.113953026937358e-17
  outer loop
    vertex 285.63126639993203 16.593377659552885 195.61379161910804
    vertex 285.63126639993203 48.5933776595554 221.61379161910804
    vertex 285.63126639993203 28.593377659554143 199.613791619108
  endloop
endfacet
facet normal -1.0 2.0735047665791926e-17 6.113953026937358e-17
  outer loop
    vertex 285.63126639993203 28.593377659554143 199.613791619108
    vertex 285.63126639993203 48.5933776595554 221.61379161910804
    vertex 285.63126639993203 36.59337765955414 199.613791619108
  endloop
endfacet
facet normal -1.0 2.0735047665791926e-17 6.113953026937358e-17
  outer loop
    vertex 285.63126639993203 36.59337765955414 199.613791619108
    vertex 285.63126639993203 48.5933776595554 221.61379161910804
    vertex 285.63126639993203 36.59337765955414 195.61379161910804
  endloop
endfacet
facet normal -1.0 2.0735047665791926e-17 6.113953026937358e-17
  outer loop
    vertex 285.63126639993203 36.59337765955414 195.61379161910804
    vertex 285.63126639993203 48.5933776595554 221.61379161910804
    vertex 285.63126639993203 48.5933776595554 195.61379161910804
  endloop
endfacet
facet normal -1.0 2.0735047665791926e-17 6.113953026937358e-17
  outer loop
    vertex 285.63126639993203 28.593377659554143 195.61379161910804
    vertex 285.63126639993203 16.593377659552885 195.61379161910804
    vertex 285.63126639993203 28.593377659554143 199.613791619108
  endloop
endfacet
facet normal 0.0 1.0 0.0
  outer loop
    vertex 282.6312663999321 16.593377659552885 221.61379161910804
    vertex 285.63126639993203 16.593377659552885 195.61379161910804
    vertex 282.6312663999321 16.593377659552885 195.61379161910804
  endloop
endfacet
facet normal 0.0 1.0 0.0
  outer loop
    vertex 285.63126639993203 16.593377659552885 195.61379161910804
    vertex 282.6312663999321 16.593377659552885 221.61379161910804
    vertex 285.63126639993203 16.593377659552885 221.61379161910804
  endloop
endfacet
facet normal 1.0026547493503503e-14 7.210873197382479e-16 -1.0
  outer loop
    vertex 355.9312663999323 60.593377659555415 195.61379161910813
    vertex 352.9312663999323 60.593377659555415 195.61379161910804
    vertex 352.9312663999323 63.59337765955541 195.61379161910804
  endloop
endfacet
facet normal 1.0026547493503503e-14 7.210873197382479e-16 -1.0
  outer loop
    vertex 352.9312663999323 60.593377659555415 195.61379161910804
    vertex 355.9312663999323 60.593377659555415 195.61379161910813
    vertex 352.9312663999323 36.59337765955414 195.61379161910804
  endloop
endfacet
facet normal 1.0026547493503503e-14 7.210873197382479e-16 -1.0
  outer loop
    vertex 352.9312663999323 36.59337765955414 195.61379161910804
    vertex 355.9312663999323 60.593377659555415 195.61379161910813
    vertex 355.9312663999323 36.59337765955414 195.61379161910804
  endloop
endfacet
facet normal 1.0 -1.5791812302267539e-15 9.952822879580884e-16
  outer loop
    vertex 355.9312663999323 60.593377659555415 195.61379161910813
    vertex 355.9312663999323 36.59337765955414 199.613791619108
    vertex 355.9312663999323 36.59337765955414 195.61379161910804
  endloop
endfacet
facet normal 1.0 -1.5791812302267539e-15 9.952822879580884e-16
  outer loop
    vertex 355.9312663999323 28.593377659554143 195.61379161910804
    vertex 355.93126639993227 4.59337765955288 223.613791619108
    vertex 355.93126639993227 4.59337765955288 195.61379161910813
  endloop
endfacet
facet normal 1.0 -1.5791812302267539e-15 9.952822879580884e-16
  outer loop
    vertex 355.93126639993227 4.59337765955288 223.613791619108
    vertex 355.9312663999323 28.593377659554143 195.61379161910804
    vertex 355.9312663999323 28.593377659554143 199.613791619108
  endloop
endfacet
facet normal 1.0 -1.5791812302267539e-15 9.952822879580884e-16
  outer loop
    vertex 355.93126639993227 4.59337765955288 223.613791619108
    vertex 355.9312663999323 28.593377659554143 199.613791619108
    vertex 355.9312663999323 60.593377659555415 223.613791619108
  endloop
endfacet
facet normal 1.0 -1.5791812302267539e-15 9.952822879580884e-16
  outer loop
    vertex 355.9312663999323 60.593377659555415 223.613791619108
    vertex 355.9312663999323 28.593377659554143 199.613791619108
    vertex 355.9312663999323 36.59337765955414 199.613791619108
  endloop
endfacet
facet normal 1.0 -1.5791812302267539e-15 9.952822879580884e-16
  outer loop
    vertex 355.9312663999323 60.593377659555415 223.613791619108
    vertex 355.9312663999323 36.59337765955414 199.613791619108
    vertex 355.9312663999323 60.593377659555415 195.61379161910813
  endloop
endfacet
facet normal 0.0 0.0 -1.0
  outer loop
    vertex 355.9312663999323 36.59337765955414 199.613791619108
    vertex 352.9312663999323 28.593377659554143 199.613791619108
    vertex 352.9312663999323 36.59337765955414 199.613791619108
  endloop
endfacet
facet normal 0.0 0.0 -1.0
  outer loop
    vertex 352.9312663999323 28.593377659554143 199.613791619108
    vertex 355.9312663999323 36.59337765955414 199.613791619108
    vertex 355.9312663999323 28.593377659554143 199.613791619108
  endloop
endfacet
facet normal 0.7071067811865529 -0.7071067811865422 4.037630941659397e-18
  outer loop
    vertex 355.93126639993227 4.59337765955288 195.61379161910813
    vertex 352.9312663999323 1.5933776595528846 223.613791619108
    vertex 352.9312663999323 1.5933776595528846 195.61379161910813
  endloop
endfacet
facet normal 0.7071067811865529 -0.7071067811865422 4.037630941659397e-18
  outer loop
    vertex 352.9312663999323 1.5933776595528846 223.613791619108
    vertex 355.93126639993227 4.59337765955288 195.61379161910813
    vertex 355.93126639993227 4.59337765955288 223.613791619108
  endloop
endfacet
facet normal 0.7071067811865422 0.7071067811865528 0.0
  outer loop
    vertex 352.9312663999323 63.59337765955541 220.61379161910804
    vertex 355.9312663999323 60.593377659555415 195.61379161910813
    vertex 352.9312663999323 63.59337765955541 195.61379161910804
  endloop
endfacet
facet normal 0.7071067811865422 0.7071067811865528 0.0
  outer loop
    vertex 355.9312663999323 60.593377659555415 195.61379161910813
    vertex 352.9312663999323 63.59337765955541 220.61379161910804
    vertex 355.9312663999323 60.593377659555415 223.613791619108
  endloop
endfacet
facet normal 0.7071067811865422 0.7071067811865528 0.0
  outer loop
    vertex 355.9312663999323 60.593377659555415 223.613791619108
    vertex 352.9312663999323 63.59337765955541 220.61379161910804
    vertex 352.9312663999323 63.59337765955541 223.613791619108
  endloop
endfacet
endsolid LIXIE_MODULAR_RELEASE_VERSION
